<svg width="189" height="58" viewBox="0 0 189 58" fill="none" xmlns="http://www.w3.org/2000/svg">
<g filter="url(#filter0_dd_401_240)">
<path d="M4 27C4 14.2975 14.2975 4 27 4H162C174.703 4 185 14.2975 185 27C185 39.7025 174.703 50 162 50H27C14.2974 50 4 39.7025 4 27Z" fill="white" shape-rendering="crispEdges"/>
<path d="M27 5H162C174.15 5 184 14.8497 184 27C184 39.1503 174.15 49 162 49H27C14.8497 49 5 39.1503 5 27C5 14.8497 14.8497 5 27 5Z" stroke="#8E918F" stroke-width="2" shape-rendering="crispEdges"/>
<path d="M7 27C7 15.9543 15.9543 7 27 7H160C171.046 7 180 15.9543 180 27C180 38.0457 171.046 47 160 47H27C15.9543 47 7 38.0457 7 27Z" fill="#EEEEEE"/>
<path fill-rule="evenodd" clip-rule="evenodd" d="M36.64 27.2045C36.64 26.5664 36.5827 25.9527 36.4764 25.3636H28V28.845H32.8436C32.635 29.97 32.0009 30.9232 31.0477 31.5614V33.8195H33.9564C35.6582 32.2527 36.64 29.9454 36.64 27.2045Z" fill="#4285F4"/>
<path fill-rule="evenodd" clip-rule="evenodd" d="M28 36C30.43 36 32.4673 35.1941 33.9564 33.8195L31.0477 31.5614C30.2418 32.1014 29.2109 32.4204 28 32.4204C25.6559 32.4204 23.6718 30.8373 22.9641 28.71H19.9573V31.0418C21.4382 33.9832 24.4818 36 28 36Z" fill="#34A853"/>
<path fill-rule="evenodd" clip-rule="evenodd" d="M22.9641 28.71C22.7841 28.17 22.6818 27.5932 22.6818 27C22.6818 26.4068 22.7841 25.83 22.9641 25.29V22.9582H19.9573C19.3477 24.1732 19 25.5477 19 27C19 28.4523 19.3477 29.8268 19.9573 31.0418L22.9641 28.71Z" fill="#FBBC05"/>
<path fill-rule="evenodd" clip-rule="evenodd" d="M28 21.5795C29.3214 21.5795 30.5077 22.0336 31.4405 22.9255L34.0218 20.3441C32.4632 18.8918 30.4259 18 28 18C24.4818 18 21.4382 20.0168 19.9573 22.9582L22.9641 25.29C23.6718 23.1627 25.6559 21.5795 28 21.5795Z" fill="#EA4335"/>
<path d="M53.248 29.4365C53.248 29.2314 53.2161 29.0492 53.1523 28.8896C53.0931 28.7301 52.986 28.5843 52.8311 28.4521C52.6761 28.32 52.4574 28.1924 52.1748 28.0693C51.8968 27.9417 51.5413 27.8118 51.1084 27.6797C50.6344 27.5339 50.1969 27.3721 49.7959 27.1943C49.3994 27.012 49.0531 26.8024 48.7568 26.5654C48.4606 26.3239 48.2305 26.0482 48.0664 25.7383C47.9023 25.4238 47.8203 25.0615 47.8203 24.6514C47.8203 24.2458 47.9046 23.8766 48.0732 23.5439C48.2464 23.2113 48.4902 22.9242 48.8047 22.6826C49.1237 22.4365 49.4997 22.2474 49.9326 22.1152C50.3656 21.9785 50.8441 21.9102 51.3682 21.9102C52.1064 21.9102 52.7422 22.0469 53.2754 22.3203C53.8132 22.5938 54.2256 22.9606 54.5127 23.4209C54.8044 23.8812 54.9502 24.3893 54.9502 24.9453H53.248C53.248 24.6172 53.1774 24.3278 53.0361 24.0771C52.8994 23.8219 52.6898 23.6214 52.4072 23.4756C52.1292 23.3298 51.776 23.2568 51.3477 23.2568C50.9421 23.2568 50.6048 23.3184 50.3359 23.4414C50.0671 23.5645 49.8665 23.7308 49.7344 23.9404C49.6022 24.1501 49.5361 24.387 49.5361 24.6514C49.5361 24.8382 49.5794 25.0091 49.666 25.1641C49.7526 25.3145 49.8848 25.4557 50.0625 25.5879C50.2402 25.7155 50.4635 25.8363 50.7324 25.9502C51.0013 26.0641 51.318 26.1735 51.6826 26.2783C52.234 26.4424 52.7148 26.6247 53.125 26.8252C53.5352 27.0212 53.877 27.2445 54.1504 27.4951C54.4238 27.7458 54.6289 28.0306 54.7656 28.3496C54.9023 28.6641 54.9707 29.0218 54.9707 29.4229C54.9707 29.8421 54.8864 30.2204 54.7178 30.5576C54.5492 30.8903 54.3076 31.1751 53.9932 31.4121C53.6833 31.6445 53.3096 31.8245 52.8721 31.9521C52.4391 32.0752 51.9561 32.1367 51.4229 32.1367C50.9443 32.1367 50.4727 32.0729 50.0078 31.9453C49.5475 31.8177 49.1283 31.624 48.75 31.3643C48.3717 31.0999 48.071 30.7718 47.8477 30.3799C47.6243 29.9834 47.5127 29.5208 47.5127 28.9922H49.2285C49.2285 29.3158 49.2832 29.5915 49.3926 29.8193C49.5065 30.0472 49.6637 30.234 49.8643 30.3799C50.0648 30.5212 50.2972 30.626 50.5615 30.6943C50.8304 30.7627 51.1175 30.7969 51.4229 30.7969C51.8239 30.7969 52.1589 30.7399 52.4277 30.626C52.7012 30.512 52.9062 30.3525 53.043 30.1475C53.1797 29.9424 53.248 29.7054 53.248 29.4365ZM58.0879 24.6035V32H56.4336V24.6035H58.0879ZM56.3242 22.6621C56.3242 22.4115 56.4062 22.2041 56.5703 22.04C56.7389 21.8714 56.9714 21.7871 57.2676 21.7871C57.5592 21.7871 57.7894 21.8714 57.958 22.04C58.1266 22.2041 58.2109 22.4115 58.2109 22.6621C58.2109 22.9082 58.1266 23.1133 57.958 23.2773C57.7894 23.4414 57.5592 23.5234 57.2676 23.5234C56.9714 23.5234 56.7389 23.4414 56.5703 23.2773C56.4062 23.1133 56.3242 22.9082 56.3242 22.6621ZM64.6299 24.6035H66.127V31.7949C66.127 32.4603 65.9857 33.0254 65.7031 33.4902C65.4206 33.9551 65.0264 34.3083 64.5205 34.5498C64.0146 34.7959 63.429 34.9189 62.7637 34.9189C62.4811 34.9189 62.1667 34.8779 61.8203 34.7959C61.4785 34.7139 61.1458 34.5817 60.8223 34.3994C60.5033 34.2217 60.2367 33.987 60.0225 33.6953L60.7949 32.7246C61.0592 33.0391 61.3509 33.2692 61.6699 33.415C61.9889 33.5609 62.3239 33.6338 62.6748 33.6338C63.0531 33.6338 63.3743 33.5632 63.6387 33.4219C63.9076 33.2852 64.1149 33.0824 64.2607 32.8135C64.4066 32.5446 64.4795 32.2165 64.4795 31.8291V26.2783L64.6299 24.6035ZM59.6055 28.3838V28.2402C59.6055 27.6797 59.6738 27.1693 59.8105 26.709C59.9473 26.2441 60.1432 25.8454 60.3984 25.5127C60.6536 25.1755 60.9635 24.918 61.3281 24.7402C61.6927 24.5579 62.1051 24.4668 62.5654 24.4668C63.0439 24.4668 63.4518 24.5534 63.7891 24.7266C64.1309 24.8997 64.4157 25.1481 64.6436 25.4717C64.8714 25.7907 65.0492 26.1735 65.1768 26.6201C65.3089 27.0622 65.4069 27.5544 65.4707 28.0967V28.5547C65.4115 29.0833 65.3112 29.5664 65.1699 30.0039C65.0286 30.4414 64.8418 30.8197 64.6094 31.1387C64.377 31.4577 64.0898 31.7038 63.748 31.877C63.4108 32.0501 63.012 32.1367 62.5518 32.1367C62.1006 32.1367 61.6927 32.0433 61.3281 31.8564C60.9681 31.6696 60.6582 31.4076 60.3984 31.0703C60.1432 30.7331 59.9473 30.3366 59.8105 29.8809C59.6738 29.4206 59.6055 28.9215 59.6055 28.3838ZM61.2529 28.2402V28.3838C61.2529 28.721 61.2848 29.0355 61.3486 29.3271C61.417 29.6188 61.5195 29.8763 61.6562 30.0996C61.7975 30.3184 61.9753 30.4915 62.1895 30.6191C62.4082 30.7422 62.6657 30.8037 62.9619 30.8037C63.3493 30.8037 63.666 30.7217 63.9121 30.5576C64.1628 30.3936 64.3542 30.1725 64.4863 29.8945C64.623 29.612 64.7188 29.2975 64.7734 28.9512V27.7139C64.7461 27.445 64.6891 27.1943 64.6025 26.9619C64.5205 26.7295 64.4089 26.5267 64.2676 26.3535C64.1263 26.1758 63.9486 26.0391 63.7344 25.9434C63.5202 25.8431 63.2673 25.793 62.9756 25.793C62.6794 25.793 62.4219 25.8568 62.2031 25.9844C61.9844 26.112 61.8044 26.2874 61.6631 26.5107C61.5264 26.734 61.4238 26.9938 61.3555 27.29C61.2871 27.5863 61.2529 27.903 61.2529 28.2402ZM69.4697 26.1826V32H67.8223V24.6035H69.374L69.4697 26.1826ZM69.1758 28.0283L68.6426 28.0215C68.6471 27.4974 68.7201 27.0166 68.8613 26.5791C69.0072 26.1416 69.2077 25.7656 69.4629 25.4512C69.7227 25.1367 70.0326 24.8952 70.3926 24.7266C70.7526 24.5534 71.1536 24.4668 71.5957 24.4668C71.9512 24.4668 72.2725 24.5169 72.5596 24.6172C72.8512 24.7129 73.0996 24.8701 73.3047 25.0889C73.5143 25.3076 73.6738 25.5924 73.7832 25.9434C73.8926 26.2897 73.9473 26.7158 73.9473 27.2217V32H72.293V27.2148C72.293 26.8594 72.2406 26.5791 72.1357 26.374C72.0355 26.1644 71.8874 26.0163 71.6914 25.9297C71.5 25.8385 71.2607 25.793 70.9736 25.793C70.6911 25.793 70.4382 25.8522 70.2148 25.9707C69.9915 26.0892 69.8024 26.251 69.6475 26.4561C69.4971 26.6611 69.3809 26.8981 69.2988 27.167C69.2168 27.4359 69.1758 27.723 69.1758 28.0283ZM80.8789 24.6035V32H79.2246V24.6035H80.8789ZM79.1152 22.6621C79.1152 22.4115 79.1973 22.2041 79.3613 22.04C79.5299 21.8714 79.7624 21.7871 80.0586 21.7871C80.3503 21.7871 80.5804 21.8714 80.749 22.04C80.9176 22.2041 81.002 22.4115 81.002 22.6621C81.002 22.9082 80.9176 23.1133 80.749 23.2773C80.5804 23.4414 80.3503 23.5234 80.0586 23.5234C79.7624 23.5234 79.5299 23.4414 79.3613 23.2773C79.1973 23.1133 79.1152 22.9082 79.1152 22.6621ZM84.3174 26.1826V32H82.6699V24.6035H84.2217L84.3174 26.1826ZM84.0234 28.0283L83.4902 28.0215C83.4948 27.4974 83.5677 27.0166 83.709 26.5791C83.8548 26.1416 84.0553 25.7656 84.3105 25.4512C84.5703 25.1367 84.8802 24.8952 85.2402 24.7266C85.6003 24.5534 86.0013 24.4668 86.4434 24.4668C86.7988 24.4668 87.1201 24.5169 87.4072 24.6172C87.6989 24.7129 87.9473 24.8701 88.1523 25.0889C88.362 25.3076 88.5215 25.5924 88.6309 25.9434C88.7402 26.2897 88.7949 26.7158 88.7949 27.2217V32H87.1406V27.2148C87.1406 26.8594 87.0882 26.5791 86.9834 26.374C86.8831 26.1644 86.735 26.0163 86.5391 25.9297C86.3477 25.8385 86.1084 25.793 85.8213 25.793C85.5387 25.793 85.2858 25.8522 85.0625 25.9707C84.8392 26.0892 84.6501 26.251 84.4951 26.4561C84.3447 26.6611 84.2285 26.8981 84.1465 27.167C84.0645 27.4359 84.0234 27.723 84.0234 28.0283ZM95.9727 30.3594L97.6816 24.6035H98.7344L98.4473 26.3262L96.7246 32H95.7812L95.9727 30.3594ZM94.9678 24.6035L96.3008 30.3867L96.4102 32H95.3574L93.3545 24.6035H94.9678ZM100.334 30.3184L101.626 24.6035H103.232L101.236 32H100.184L100.334 30.3184ZM98.9121 24.6035L100.601 30.291L100.812 32H99.8691L98.126 26.3193L97.8389 24.6035H98.9121ZM106.117 24.6035V32H104.463V24.6035H106.117ZM104.354 22.6621C104.354 22.4115 104.436 22.2041 104.6 22.04C104.768 21.8714 105.001 21.7871 105.297 21.7871C105.589 21.7871 105.819 21.8714 105.987 22.04C106.156 22.2041 106.24 22.4115 106.24 22.6621C106.24 22.9082 106.156 23.1133 105.987 23.2773C105.819 23.4414 105.589 23.5234 105.297 23.5234C105.001 23.5234 104.768 23.4414 104.6 23.2773C104.436 23.1133 104.354 22.9082 104.354 22.6621ZM111.312 24.6035V25.8066H107.143V24.6035H111.312ZM108.346 22.792H109.993V29.9561C109.993 30.1839 110.025 30.3594 110.089 30.4824C110.157 30.6009 110.251 30.6807 110.369 30.7217C110.488 30.7627 110.627 30.7832 110.786 30.7832C110.9 30.7832 111.009 30.7764 111.114 30.7627C111.219 30.749 111.303 30.7354 111.367 30.7217L111.374 31.9795C111.237 32.0205 111.078 32.057 110.896 32.0889C110.718 32.1208 110.513 32.1367 110.28 32.1367C109.902 32.1367 109.567 32.0706 109.275 31.9385C108.984 31.8018 108.756 31.5807 108.592 31.2754C108.428 30.9701 108.346 30.5645 108.346 30.0586V22.792ZM114.211 21.5V32H112.57V21.5H114.211ZM113.924 28.0283L113.391 28.0215C113.395 27.5111 113.466 27.0394 113.603 26.6064C113.744 26.1735 113.94 25.7975 114.19 25.4785C114.446 25.1549 114.751 24.9066 115.106 24.7334C115.462 24.5557 115.856 24.4668 116.289 24.4668C116.654 24.4668 116.982 24.5169 117.273 24.6172C117.57 24.7174 117.825 24.8792 118.039 25.1025C118.253 25.3213 118.415 25.6084 118.524 25.9639C118.638 26.3148 118.695 26.7432 118.695 27.249V32H117.041V27.2354C117.041 26.8799 116.989 26.5973 116.884 26.3877C116.784 26.1781 116.635 26.0277 116.439 25.9365C116.243 25.8408 116.004 25.793 115.722 25.793C115.425 25.793 115.163 25.8522 114.936 25.9707C114.712 26.0892 114.525 26.251 114.375 26.4561C114.225 26.6611 114.111 26.8981 114.033 27.167C113.96 27.4359 113.924 27.723 113.924 28.0283ZM131.656 26.9141V30.7148C131.515 30.9017 131.294 31.1068 130.993 31.3301C130.697 31.5488 130.303 31.738 129.811 31.8975C129.318 32.057 128.705 32.1367 127.972 32.1367C127.347 32.1367 126.775 32.0319 126.256 31.8223C125.736 31.6081 125.287 31.2959 124.909 30.8857C124.535 30.4756 124.246 29.9766 124.041 29.3887C123.836 28.7962 123.733 28.1217 123.733 27.3652V26.6748C123.733 25.9229 123.827 25.2529 124.014 24.665C124.205 24.0726 124.479 23.5713 124.834 23.1611C125.189 22.751 125.618 22.4411 126.119 22.2314C126.625 22.0173 127.197 21.9102 127.835 21.9102C128.651 21.9102 129.325 22.0469 129.858 22.3203C130.396 22.5892 130.811 22.9629 131.103 23.4414C131.394 23.9199 131.579 24.4668 131.656 25.082H129.975C129.92 24.7357 129.813 24.4258 129.653 24.1523C129.498 23.8789 129.275 23.6647 128.983 23.5098C128.696 23.3503 128.323 23.2705 127.862 23.2705C127.466 23.2705 127.117 23.3457 126.816 23.4961C126.516 23.6465 126.265 23.8675 126.064 24.1592C125.868 24.4508 125.72 24.8063 125.62 25.2256C125.52 25.6449 125.47 26.1234 125.47 26.6611V27.3652C125.47 27.9121 125.527 28.3975 125.641 28.8213C125.759 29.2451 125.928 29.6029 126.146 29.8945C126.37 30.1862 126.641 30.4072 126.96 30.5576C127.279 30.7035 127.639 30.7764 128.04 30.7764C128.432 30.7764 128.753 30.7445 129.004 30.6807C129.255 30.6123 129.453 30.5326 129.599 30.4414C129.749 30.3457 129.865 30.2546 129.947 30.168V28.1924H127.876V26.9141H131.656ZM133.078 28.3838V28.2266C133.078 27.6934 133.156 27.1989 133.311 26.7432C133.465 26.2829 133.689 25.8841 133.98 25.5469C134.277 25.2051 134.637 24.9408 135.061 24.7539C135.489 24.5625 135.972 24.4668 136.51 24.4668C137.052 24.4668 137.535 24.5625 137.959 24.7539C138.387 24.9408 138.75 25.2051 139.046 25.5469C139.342 25.8841 139.568 26.2829 139.723 26.7432C139.878 27.1989 139.955 27.6934 139.955 28.2266V28.3838C139.955 28.917 139.878 29.4115 139.723 29.8672C139.568 30.3229 139.342 30.7217 139.046 31.0635C138.75 31.4007 138.39 31.665 137.966 31.8564C137.542 32.0433 137.061 32.1367 136.523 32.1367C135.981 32.1367 135.496 32.0433 135.067 31.8564C134.644 31.665 134.284 31.4007 133.987 31.0635C133.691 30.7217 133.465 30.3229 133.311 29.8672C133.156 29.4115 133.078 28.917 133.078 28.3838ZM134.726 28.2266V28.3838C134.726 28.7165 134.76 29.0309 134.828 29.3271C134.896 29.6234 135.004 29.8831 135.149 30.1064C135.295 30.3298 135.482 30.5052 135.71 30.6328C135.938 30.7604 136.209 30.8242 136.523 30.8242C136.829 30.8242 137.093 30.7604 137.316 30.6328C137.544 30.5052 137.731 30.3298 137.877 30.1064C138.023 29.8831 138.13 29.6234 138.198 29.3271C138.271 29.0309 138.308 28.7165 138.308 28.3838V28.2266C138.308 27.8984 138.271 27.5885 138.198 27.2969C138.13 27.0007 138.021 26.7386 137.87 26.5107C137.724 26.2829 137.537 26.1051 137.31 25.9775C137.086 25.8454 136.82 25.7793 136.51 25.7793C136.2 25.7793 135.931 25.8454 135.703 25.9775C135.48 26.1051 135.295 26.2829 135.149 26.5107C135.004 26.7386 134.896 27.0007 134.828 27.2969C134.76 27.5885 134.726 27.8984 134.726 28.2266ZM141.021 28.3838V28.2266C141.021 27.6934 141.099 27.1989 141.254 26.7432C141.409 26.2829 141.632 25.8841 141.924 25.5469C142.22 25.2051 142.58 24.9408 143.004 24.7539C143.432 24.5625 143.915 24.4668 144.453 24.4668C144.995 24.4668 145.479 24.5625 145.902 24.7539C146.331 24.9408 146.693 25.2051 146.989 25.5469C147.285 25.8841 147.511 26.2829 147.666 26.7432C147.821 27.1989 147.898 27.6934 147.898 28.2266V28.3838C147.898 28.917 147.821 29.4115 147.666 29.8672C147.511 30.3229 147.285 30.7217 146.989 31.0635C146.693 31.4007 146.333 31.665 145.909 31.8564C145.485 32.0433 145.005 32.1367 144.467 32.1367C143.924 32.1367 143.439 32.0433 143.011 31.8564C142.587 31.665 142.227 31.4007 141.931 31.0635C141.634 30.7217 141.409 30.3229 141.254 29.8672C141.099 29.4115 141.021 28.917 141.021 28.3838ZM142.669 28.2266V28.3838C142.669 28.7165 142.703 29.0309 142.771 29.3271C142.84 29.6234 142.947 29.8831 143.093 30.1064C143.239 30.3298 143.425 30.5052 143.653 30.6328C143.881 30.7604 144.152 30.8242 144.467 30.8242C144.772 30.8242 145.036 30.7604 145.26 30.6328C145.488 30.5052 145.674 30.3298 145.82 30.1064C145.966 29.8831 146.073 29.6234 146.142 29.3271C146.215 29.0309 146.251 28.7165 146.251 28.3838V28.2266C146.251 27.8984 146.215 27.5885 146.142 27.2969C146.073 27.0007 145.964 26.7386 145.813 26.5107C145.668 26.2829 145.481 26.1051 145.253 25.9775C145.03 25.8454 144.763 25.7793 144.453 25.7793C144.143 25.7793 143.874 25.8454 143.646 25.9775C143.423 26.1051 143.239 26.2829 143.093 26.5107C142.947 26.7386 142.84 27.0007 142.771 27.2969C142.703 27.5885 142.669 27.8984 142.669 28.2266ZM154.017 24.6035H155.514V31.7949C155.514 32.4603 155.372 33.0254 155.09 33.4902C154.807 33.9551 154.413 34.3083 153.907 34.5498C153.401 34.7959 152.816 34.9189 152.15 34.9189C151.868 34.9189 151.553 34.8779 151.207 34.7959C150.865 34.7139 150.533 34.5817 150.209 34.3994C149.89 34.2217 149.623 33.987 149.409 33.6953L150.182 32.7246C150.446 33.0391 150.738 33.2692 151.057 33.415C151.376 33.5609 151.711 33.6338 152.062 33.6338C152.44 33.6338 152.761 33.5632 153.025 33.4219C153.294 33.2852 153.502 33.0824 153.647 32.8135C153.793 32.5446 153.866 32.2165 153.866 31.8291V26.2783L154.017 24.6035ZM148.992 28.3838V28.2402C148.992 27.6797 149.061 27.1693 149.197 26.709C149.334 26.2441 149.53 25.8454 149.785 25.5127C150.04 25.1755 150.35 24.918 150.715 24.7402C151.079 24.5579 151.492 24.4668 151.952 24.4668C152.431 24.4668 152.839 24.5534 153.176 24.7266C153.518 24.8997 153.802 25.1481 154.03 25.4717C154.258 25.7907 154.436 26.1735 154.563 26.6201C154.696 27.0622 154.794 27.5544 154.857 28.0967V28.5547C154.798 29.0833 154.698 29.5664 154.557 30.0039C154.415 30.4414 154.229 30.8197 153.996 31.1387C153.764 31.4577 153.477 31.7038 153.135 31.877C152.798 32.0501 152.399 32.1367 151.938 32.1367C151.487 32.1367 151.079 32.0433 150.715 31.8564C150.355 31.6696 150.045 31.4076 149.785 31.0703C149.53 30.7331 149.334 30.3366 149.197 29.8809C149.061 29.4206 148.992 28.9215 148.992 28.3838ZM150.64 28.2402V28.3838C150.64 28.721 150.672 29.0355 150.735 29.3271C150.804 29.6188 150.906 29.8763 151.043 30.0996C151.184 30.3184 151.362 30.4915 151.576 30.6191C151.795 30.7422 152.052 30.8037 152.349 30.8037C152.736 30.8037 153.053 30.7217 153.299 30.5576C153.549 30.3936 153.741 30.1725 153.873 29.8945C154.01 29.612 154.105 29.2975 154.16 28.9512V27.7139C154.133 27.445 154.076 27.1943 153.989 26.9619C153.907 26.7295 153.796 26.5267 153.654 26.3535C153.513 26.1758 153.335 26.0391 153.121 25.9434C152.907 25.8431 152.654 25.793 152.362 25.793C152.066 25.793 151.809 25.8568 151.59 25.9844C151.371 26.112 151.191 26.2874 151.05 26.5107C150.913 26.734 150.811 26.9938 150.742 27.29C150.674 27.5863 150.64 27.903 150.64 28.2402ZM158.986 21.5V32H157.332V21.5H158.986ZM164.052 32.1367C163.505 32.1367 163.01 32.0479 162.568 31.8701C162.131 31.6878 161.757 31.4349 161.447 31.1113C161.142 30.7878 160.907 30.4072 160.743 29.9697C160.579 29.5322 160.497 29.0605 160.497 28.5547V28.2812C160.497 27.7025 160.581 27.1784 160.75 26.709C160.919 26.2396 161.153 25.8385 161.454 25.5059C161.755 25.1686 162.11 24.9111 162.521 24.7334C162.931 24.5557 163.375 24.4668 163.854 24.4668C164.382 24.4668 164.845 24.5557 165.241 24.7334C165.638 24.9111 165.966 25.1618 166.226 25.4854C166.49 25.8044 166.686 26.1849 166.813 26.627C166.946 27.069 167.012 27.5566 167.012 28.0898V28.7939H161.297V27.6113H165.385V27.4814C165.376 27.1852 165.316 26.9072 165.207 26.6475C165.102 26.3877 164.94 26.1781 164.722 26.0186C164.503 25.859 164.211 25.7793 163.847 25.7793C163.573 25.7793 163.329 25.8385 163.115 25.957C162.906 26.071 162.73 26.2373 162.589 26.4561C162.448 26.6748 162.338 26.9391 162.261 27.249C162.188 27.5544 162.151 27.8984 162.151 28.2812V28.5547C162.151 28.8783 162.195 29.179 162.281 29.457C162.372 29.7305 162.505 29.9697 162.678 30.1748C162.851 30.3799 163.061 30.5417 163.307 30.6602C163.553 30.7741 163.833 30.8311 164.147 30.8311C164.544 30.8311 164.897 30.7513 165.207 30.5918C165.517 30.4323 165.786 30.2067 166.014 29.915L166.882 30.7559C166.722 30.9883 166.515 31.2116 166.26 31.4258C166.005 31.6354 165.692 31.8063 165.323 31.9385C164.959 32.0706 164.535 32.1367 164.052 32.1367Z" fill="black" fill-opacity="0.4"/>
</g>
<defs>
<filter id="filter0_dd_401_240" x="0" y="0" width="189" height="58" filterUnits="userSpaceOnUse" color-interpolation-filters="sRGB">
<feFlood flood-opacity="0" result="BackgroundImageFix"/>
<feColorMatrix in="SourceAlpha" type="matrix" values="0 0 0 0 0 0 0 0 0 0 0 0 0 0 0 0 0 0 127 0" result="hardAlpha"/>
<feOffset dy="4"/>
<feGaussianBlur stdDeviation="2"/>
<feComposite in2="hardAlpha" operator="out"/>
<feColorMatrix type="matrix" values="0 0 0 0 0 0 0 0 0 0 0 0 0 0 0 0 0 0 0.25 0"/>
<feBlend mode="normal" in2="BackgroundImageFix" result="effect1_dropShadow_401_240"/>
<feColorMatrix in="SourceAlpha" type="matrix" values="0 0 0 0 0 0 0 0 0 0 0 0 0 0 0 0 0 0 127 0" result="hardAlpha"/>
<feOffset/>
<feGaussianBlur stdDeviation="2"/>
<feComposite in2="hardAlpha" operator="out"/>
<feColorMatrix type="matrix" values="0 0 0 0 0.203922 0 0 0 0 0.658824 0 0 0 0 0.32549 0 0 0 1 0"/>
<feBlend mode="normal" in2="effect1_dropShadow_401_240" result="effect2_dropShadow_401_240"/>
<feBlend mode="normal" in="SourceGraphic" in2="effect2_dropShadow_401_240" result="shape"/>
</filter>
</defs>
</svg>
