<?xml version="1.0" encoding="UTF-8"?>
<svg version="1.1" xmlns="http://www.w3.org/2000/svg" width="500" height="500">
<path d="M0 0 C165 0 330 0 500 0 C500 165 500 330 500 500 C335 500 170 500 0 500 C0 335 0 170 0 0 Z " fill="#000000" transform="translate(0,0)"/>
<path d="M0 0 C4.73639119 2.48501242 9.77962799 7.08225251 11.5078125 12.27734375 C12.75106096 19.45304954 12.33356025 25.04961866 8.4296875 31.3046875 C4.34138394 36.66036516 0.48408451 39.6541727 -6.17578125 40.66015625 C-11.8698879 41.00242496 -15.54138257 39.72340864 -20.11328125 36.3125 C-24.99814455 31.56936387 -27.37494914 25.94071155 -27.6328125 19.1640625 C-27.17059253 11.57891424 -24.1534699 6.9200125 -18.8515625 1.734375 C-14.066092 -2.11575353 -5.63814502 -1.71416131 0 0 Z " fill="#0B0607" transform="translate(177.1328125,246.6484375)"/>
<path d="M0 0 C2.25 2.5625 2.25 2.5625 4 5 C4.66 5.33 5.32 5.66 6 6 C6.2475 5.4225 6.495 4.845 6.75 4.25 C8.22820473 1.58923149 9.58314039 -0.13556544 12 -2 C14.94734814 -1.92811346 16.43498149 -1.44394312 18.75 0.375 C21.27219426 3.65385254 21.19092993 6.95519252 21.25 10.9375 C21.27578125 11.97777344 21.3015625 13.01804687 21.328125 14.08984375 C20.96423357 17.31721419 20.16358594 18.63713641 18 21 C11.9988061 19.89978112 9.57870828 19.16924529 6 14 C5.01 13.67 4.02 13.34 3 13 C2.505 15.475 2.505 15.475 2 18 C-2.44521632 19.79925423 -5.36220682 20.38147031 -10 19 C-12.8125 17.4375 -12.8125 17.4375 -15 15 C-15.71063428 12.26719316 -15.85762354 9.84752928 -16 7 C-16.61875 7.495 -17.2375 7.99 -17.875 8.5 C-20 10 -20 10 -22 10 C-20.31192092 14.23084903 -20.31192092 14.23084903 -17 17 C-17 17.66 -17 18.32 -17 19 C-18.65 18.67 -20.3 18.34 -22 18 C-22.495 15.525 -22.495 15.525 -23 13 C-23.66 13 -24.32 13 -25 13 C-25 12.34 -25 11.68 -25 11 C-25.99 11 -26.98 11 -28 11 C-28 13.64 -28 16.28 -28 19 C-29.64438725 19.19978537 -31.29066235 19.38403611 -32.9375 19.5625 C-33.85402344 19.66691406 -34.77054688 19.77132813 -35.71484375 19.87890625 C-39.81757597 20.03013657 -43.91959193 19.45337867 -48 19 C-48 12.4 -48 5.8 -48 -1 C-38.1 -1 -28.2 -1 -18 -1 C-18 -0.34 -18 0.32 -18 1 C-17.319375 0.690625 -16.63875 0.38125 -15.9375 0.0625 C-10.22223018 -2.00472525 -5.57727215 -2.72666639 0 0 Z " fill="#6E5B5D" transform="translate(282,309)"/>
<path d="M0 0 C2.475 0.495 2.475 0.495 5 1 C5.495 5.95 5.495 5.95 6 11 C7.36125 11.433125 7.36125 11.433125 8.75 11.875 C12 13 12 13 13.9609375 14 C22.82505752 18.34715465 34.78591837 18.45932507 44.125 15.8125 C47.73994596 14.56434276 51.2344568 13.06518601 54.75 11.5625 C73.01933265 3.90191579 91.49531552 2.07113276 110.4140625 8.8671875 C111.96934093 9.51780198 113.4921034 10.2460517 115 11 C111.60458486 12.1628134 109.72248091 11.81351928 106.375 10.625 C101.21576028 8.97313816 96.39908633 8.26592515 91 8 C90.07445312 7.94714844 89.14890625 7.89429688 88.1953125 7.83984375 C75.82087266 7.4623741 64.83294075 10.74741841 53.5703125 15.5 C52.39210938 15.995 51.21390625 16.49 50 17 C49.38584229 17.277229 48.77168457 17.55445801 48.13891602 17.84008789 C42.63549897 20.16683149 37.62424841 20.50408437 31.6875 20.4375 C30.76195312 20.43137695 29.83640625 20.42525391 28.8828125 20.41894531 C19.54575608 20.20554564 12.06284884 18.40070676 5 12 C4.01 11.67 3.02 11.34 2 11 C1.814375 11.83917969 1.814375 11.83917969 1.625 12.6953125 C0.94542553 15.20124335 0.01261982 17.48491938 -1 19.875 C-2.50361267 23.58208869 -3.69802522 26.97366966 -4 31 C-3.505 31.99 -3.505 31.99 -3 33 C-2.625 35.875 -2.625 35.875 -3 39 C-5.4200422 41.48918626 -7.30677556 42.78543053 -10.625 43.8125 C-14.18709904 45.59354952 -14.62489173 48.39852597 -16 52 C-16.99 52.495 -16.99 52.495 -18 53 C-17.67 50.69 -17.34 48.38 -17 46 C-20.465 46.495 -20.465 46.495 -24 47 C-24 47.66 -24 48.32 -24 49 C-24.66 49 -25.32 49 -26 49 C-26.33 50.65 -26.66 52.3 -27 54 C-26.01 54 -25.02 54 -24 54 C-24 55.32 -24 56.64 -24 58 C-27.96 57.34 -31.92 56.68 -36 56 C-35.505 74.315 -35.505 74.315 -35 93 C-37.31 93 -39.62 93 -42 93 C-41.67 80.79 -41.34 68.58 -41 56 C-43.64 56.33 -46.28 56.66 -49 57 C-49 57.66 -49 58.32 -49 59 C-50.98 59.495 -50.98 59.495 -53 60 C-53.042721 58.33388095 -53.04063832 56.66617115 -53 55 C-52 54 -52 54 -49.77514648 53.88647461 C-48.81680908 53.89171143 -47.85847168 53.89694824 -46.87109375 53.90234375 C-45.83662109 53.90556641 -44.80214844 53.90878906 -43.73632812 53.91210938 C-42.64771484 53.92048828 -41.55910156 53.92886719 -40.4375 53.9375 C-38.7987793 53.94426758 -38.7987793 53.94426758 -37.12695312 53.95117188 C-34.41791505 53.96300174 -31.70898401 53.97948457 -29 54 C-28.67 51.69 -28.34 49.38 -28 47 C-26.3767313 46.3291288 -24.75132422 45.66342971 -23.125 45 C-22.22007812 44.62875 -21.31515625 44.2575 -20.3828125 43.875 C-18 43 -18 43 -16 43 C-16 41.68 -16 40.36 -16 39 C-15.34 39 -14.68 39 -14 39 C-11.76328951 31.76617908 -11.76328951 31.76617908 -13.203125 24.71484375 C-14.8301259 22.8630996 -14.8301259 22.8630996 -16.6171875 21.3046875 C-17.07351563 20.87414062 -17.52984375 20.44359375 -18 20 C-18 19.34 -18 18.68 -18 18 C-18.66 18 -19.32 18 -20 18 C-20.66964286 10.23214286 -20.66964286 10.23214286 -17.6875 6.5625 C-13.9051668 2.95608928 -11.3416671 2.87833333 -6.3125 2.9375 C-5.31863281 2.94652344 -4.32476562 2.95554688 -3.30078125 2.96484375 C-2.16189453 2.98224609 -2.16189453 2.98224609 -1 3 C-0.67 2.01 -0.34 1.02 0 0 Z " fill="#5C4849" transform="translate(309,192)"/>
<path d="M0 0 C0.45134751 3.83645386 -0.25861315 6.24399526 -2.52734375 9.3828125 C-8.4289291 15.86359853 -14.81943512 20.07363093 -23.5625 20.75 C-24.69816406 20.84796875 -25.83382812 20.9459375 -27.00390625 21.046875 C-30 21 -30 21 -33 19 C-36.19920361 19.33325038 -38.94858478 19.98286159 -42 21 C-45.2897452 21.19300982 -48.57751959 21.31711953 -51.87109375 21.42578125 C-55.54466439 22.09995713 -56.59165406 23.2515232 -59 26 C-59.66 26 -60.32 26 -61 26 C-61.13535156 26.59425781 -61.27070313 27.18851562 -61.41015625 27.80078125 C-63.80694985 37.02915421 -68.08493863 45.39663909 -76 51 C-78.76565382 51.92188461 -80.38283702 52.11785222 -83.23046875 52.09765625 C-84.03291016 52.09443359 -84.83535156 52.09121094 -85.66210938 52.08789062 C-86.49548828 52.07951172 -87.32886719 52.07113281 -88.1875 52.0625 C-89.4549707 52.05573242 -89.4549707 52.05573242 -90.74804688 52.04882812 C-92.83206155 52.03705403 -94.91603977 52.0191189 -97 52 C-97 51.34 -97 50.68 -97 50 C-96.17757813 49.79246094 -95.35515625 49.58492188 -94.5078125 49.37109375 C-83.2333634 46.2595541 -74.03979358 41.33945607 -67.84179688 31.08349609 C-66.31566021 28.32649703 -64.8466918 25.54265736 -63.39453125 22.74609375 C-61.14738179 18.57506895 -59.20273096 15.46028484 -55 13 C-51.51171875 12.34765625 -51.51171875 12.34765625 -47.6875 12.0625 C-41.21780656 11.44753704 -37.2115649 9.88312679 -32 6 C-31.34 6 -30.68 6 -30 6 C-30.33 7.98 -30.66 9.96 -31 12 C-28.56212615 11.8590651 -26.12482147 11.71245458 -23.6875 11.5625 C-22.99720703 11.52318359 -22.30691406 11.48386719 -21.59570312 11.44335938 C-18.52838465 11.25072585 -15.93031848 10.97677283 -13 10 C-13.020625 9.0925 -13.04125 8.185 -13.0625 7.25 C-12 4 -12 4 -10.03515625 2.7109375 C-6.54944142 1.14038851 -3.85596227 0 0 0 Z " fill="#E4ABAE" transform="translate(414,232)"/>
<path d="M0 0 C1.65 0.33 3.3 0.66 5 1 C5.33 4.3 5.66 7.6 6 11 C6.9075 11.28875 7.815 11.5775 8.75 11.875 C12 13 12 13 13.9609375 14 C22.82505752 18.34715465 34.78591837 18.45932507 44.125 15.8125 C47.73994596 14.56434276 51.2344568 13.06518601 54.75 11.5625 C73.01933265 3.90191579 91.49531552 2.07113276 110.4140625 8.8671875 C111.96934093 9.51780198 113.4921034 10.2460517 115 11 C111.60458486 12.1628134 109.72248091 11.81351928 106.375 10.625 C101.21576028 8.97313816 96.39908633 8.26592515 91 8 C90.07445312 7.94714844 89.14890625 7.89429688 88.1953125 7.83984375 C75.82087266 7.4623741 64.83294075 10.74741841 53.5703125 15.5 C52.39210938 15.995 51.21390625 16.49 50 17 C49.38584229 17.277229 48.77168457 17.55445801 48.13891602 17.84008789 C42.63549897 20.16683149 37.62424841 20.50408437 31.6875 20.4375 C30.29917969 20.42831543 30.29917969 20.42831543 28.8828125 20.41894531 C19.54575608 20.20554564 12.06284884 18.40070676 5 12 C4.01 11.67 3.02 11.34 2 11 C1.87093262 11.58338135 1.74186523 12.1667627 1.60888672 12.76782227 C1.01936311 14.92901486 0.26278591 16.71818196 -0.7421875 18.71484375 C-1.08636719 19.40126953 -1.43054688 20.08769531 -1.78515625 20.79492188 C-2.14480469 21.50197266 -2.50445312 22.20902344 -2.875 22.9375 C-3.22691406 23.64068359 -3.57882812 24.34386719 -3.94140625 25.06835938 C-5.82557656 28.80518042 -7.78684118 32.44363473 -10 36 C-11.19022109 32.56043356 -10.80645899 30.6445023 -9.56640625 27.26171875 C-9.24736328 26.35873047 -8.92832031 25.45574219 -8.59960938 24.52539062 C-7.9124414 22.64506092 -7.2249455 20.76485102 -6.53710938 18.88476562 C-4.69894728 13.68095461 -3.5655794 9.52552523 -4 4 C-3.01 4 -2.02 4 -1 4 C-0.67 2.68 -0.34 1.36 0 0 Z " fill="#6F5E5F" transform="translate(309,192)"/>
<path d="M0 0 C3.04502872 0.240397 4.56428516 0.56428516 6.75 2.75 C11.36264369 11.05275865 9.52569719 22.95115672 7.5 31.75 C5.07766263 40.00484473 0.79350884 46.52120687 -6.25 51.5625 C-10.69715101 53.88714712 -14.24312498 54.11692255 -19.25 54.0625 C-20.32765625 54.05347656 -21.4053125 54.04445313 -22.515625 54.03515625 C-23.33546875 54.02355469 -24.1553125 54.01195312 -25 54 C-23.62583286 51.25166571 -22.23528269 51.20285715 -19.375 50.1875 C-8.37186631 45.87989021 -0.42494518 37.5607867 5 27 C5.35699871 24.79424004 5.35699871 24.79424004 5.1875 22.6875 C5.125625 21.470625 5.06375 20.25375 5 19 C2.03 18.01 -0.94 17.02 -4 16 C-4.36266924 10.19729221 -3.30512167 6.34788227 -1 1 C-0.67 0.67 -0.34 0.34 0 0 Z " fill="#E3AAAC" transform="translate(316,235)"/>
<path d="M0 0 C9.9 0 19.8 0 30 0 C29.67 0.66 29.34 1.32 29 2 C25.04 1.67 21.08 1.34 17 1 C17.02320313 2.19238281 17.04640625 3.38476562 17.0703125 4.61328125 C17.08907178 6.17968124 17.10727181 7.746088 17.125 9.3125 C17.14175781 10.09818359 17.15851563 10.88386719 17.17578125 11.69335938 C17.18222656 12.45068359 17.18867188 13.20800781 17.1953125 13.98828125 C17.20578613 14.68477783 17.21625977 15.38127441 17.22705078 16.09887695 C17 18 17 18 15 21 C10.05 20.67 5.1 20.34 0 20 C0 13.4 0 6.8 0 0 Z " fill="#150B0B" transform="translate(234,308)"/>
<path d="M0 0 C4.73639119 2.48501242 9.77962799 7.08225251 11.5078125 12.27734375 C12.76017905 19.50567679 12.30748995 25.07265945 8.36328125 31.36328125 C6.09897685 34.37250041 4.05841899 36.31460623 0.8671875 38.3515625 C-1.5078125 38.1640625 -1.5078125 38.1640625 -3.1328125 37.3515625 C-1.740625 36.578125 -1.740625 36.578125 -0.3203125 35.7890625 C3.28445361 33.30918794 5.00265048 30.63102074 5.8671875 26.3515625 C6.48824472 19.01963701 7.06942834 11.65492377 2.8671875 5.3515625 C-1.97041079 1.69386623 -7.29566964 1.63044635 -13.1328125 2.3515625 C-16.37287313 3.70158776 -17.65255009 4.55112515 -19.4453125 7.5390625 C-19.6721875 8.1371875 -19.8990625 8.7353125 -20.1328125 9.3515625 C-20.7928125 9.3515625 -21.4528125 9.3515625 -22.1328125 9.3515625 C-22.24168757 12.04017181 -22.32051844 14.72429408 -22.3828125 17.4140625 C-22.41632813 18.16623047 -22.44984375 18.91839844 -22.484375 19.69335938 C-22.58370555 25.42969892 -21.45667583 28.65067008 -18.1328125 33.3515625 C-16.2124837 35.10892762 -14.42010324 36.05196549 -12.1328125 37.3515625 C-13.7578125 38.1015625 -13.7578125 38.1015625 -16.1328125 38.3515625 C-21.54558544 35.93308948 -23.78736991 32.39972546 -26.21875 27.07421875 C-28.14500697 21.33660717 -27.72607704 16.41053944 -26.0703125 10.6640625 C-20.20051853 0.62860829 -11.58838544 -3.52320876 0 0 Z " fill="#9B7478" transform="translate(177.1328125,246.6484375)"/>
<path d="M0 0 C1.31226563 -0.02835938 2.62453125 -0.05671875 3.9765625 -0.0859375 C7.375 0.375 7.375 0.375 9.32421875 2.2265625 C10.5717383 4.77725303 10.60876559 6.5698129 10.375 9.375 C9.715 9.045 9.055 8.715 8.375 8.375 C8.375 7.715 8.375 7.055 8.375 6.375 C7.715 6.375 7.055 6.375 6.375 6.375 C5.715 5.385 5.055 4.395 4.375 3.375 C1.58240374 2.97136262 1.58240374 2.97136262 -1.5625 3.125 C-3.15384766 3.14820313 -3.15384766 3.14820313 -4.77734375 3.171875 C-7.69931256 3.26203325 -7.69931256 3.26203325 -10.625 4.375 C-10.625 7.345 -10.625 10.315 -10.625 13.375 C-6.65055983 14.93638721 -2.78478554 16.40108196 1.375 17.375 C5.53478554 18.34891804 9.40055983 19.81361279 13.375 21.375 C13.4560206 23.47853495 13.51419907 25.58295952 13.5625 27.6875 C13.61470703 29.44513672 13.61470703 29.44513672 13.66796875 31.23828125 C13.375 34.375 13.375 34.375 11.98828125 36.29296875 C10.375 37.375 10.375 37.375 8.375 37.375 C8.375 38.035 8.375 38.695 8.375 39.375 C3.81315467 41.72950082 -0.60551632 42.20753916 -5.625 41.375 C-8.82210255 39.98684806 -11.7214407 38.29697779 -14.625 36.375 C-14.625 34.725 -14.625 33.075 -14.625 31.375 C-11.2342481 32.82817939 -9.21199688 34.78800312 -6.625 37.375 C-2.41150094 38.77949969 1.53394163 39.05328466 5.75 37.5 C7.53409903 36.45749579 7.53409903 36.45749579 8.375 34.375 C8.44450541 32.83476004 8.45952357 31.29165012 8.4375 29.75 C8.42847656 28.93273437 8.41945312 28.11546875 8.41015625 27.2734375 C8.39855469 26.64695312 8.38695312 26.02046875 8.375 25.375 C6.725 24.715 5.075 24.055 3.375 23.375 C3.375 22.715 3.375 22.055 3.375 21.375 C2.405625 21.4575 1.43625 21.54 0.4375 21.625 C-5.22425133 21.625 -10.46727554 19.2711821 -14.6875 15.5625 C-16.03486072 12.41865831 -15.87510108 9.75136462 -15.625 6.375 C-15.295 5.715 -14.965 5.055 -14.625 4.375 C-13.965 4.375 -13.305 4.375 -12.625 4.375 C-12.625 3.715 -12.625 3.055 -12.625 2.375 C-8.36054677 0.3168662 -4.70978112 0.04644755 0 0 Z " fill="#C99B9F" transform="translate(208.625,245.625)"/>
<path d="M0 0 C9.9 0 19.8 0 30 0 C30 1.98 30 3.96 30 6 C25.25 4.125 25.25 4.125 23 3 C20.28737884 2.7677354 17.59226874 2.58063765 14.875 2.4375 C14.12089844 2.39431641 13.36679688 2.35113281 12.58984375 2.30664062 C10.72678112 2.2005168 8.86341476 2.09974999 7 2 C7 6.62 7 11.24 7 16 C12.61 16 18.22 16 24 16 C24 16.99 24 17.98 24 19 C23.47921875 18.84660156 22.9584375 18.69320313 22.421875 18.53515625 C19.36721485 17.86017489 16.36984029 17.65588882 13.25 17.4375 C11.1875 17.293125 9.125 17.14875 7 17 C7 23.93 7 30.86 7 38 C9.3925 37.87625 11.785 37.7525 14.25 37.625 C14.99668945 37.59100098 15.74337891 37.55700195 16.51269531 37.52197266 C20.18440414 37.30372423 22.81155556 36.79898471 26 35 C26.99 35 27.98 35 29 35 C28.67 36.32 28.34 37.64 28 39 C19.09 39 10.18 39 1 39 C1.33 38.34 1.66 37.68 2 37 C2.15644172 34.44893971 2.25821389 31.92081337 2.31640625 29.3671875 C2.33718735 28.61535187 2.35796844 27.86351624 2.37937927 27.08889771 C2.44482705 24.68435915 2.50373738 22.27971033 2.5625 19.875 C2.60568977 18.24608229 2.64930421 16.61717578 2.69335938 14.98828125 C2.80050351 10.99230085 2.90178433 6.99620941 3 3 C2.01 2.67 1.02 2.34 0 2 C0 1.34 0 0.68 0 0 Z " fill="#7E5E5F" transform="translate(225,246)"/>
<path d="M0 0 C1.16781006 0.00523682 2.33562012 0.01047363 3.53881836 0.01586914 C4.79887695 0.0190918 6.05893555 0.02231445 7.35717773 0.02563477 C8.6976732 0.03399136 10.03816799 0.04245632 11.37866211 0.05102539 C12.72306153 0.05603879 14.06746271 0.06060197 15.41186523 0.06469727 C18.71334151 0.07653051 22.01473014 0.09301568 25.31616211 0.11352539 C25.31616211 1.43352539 25.31616211 2.75352539 25.31616211 4.11352539 C19.37616211 3.12352539 19.37616211 3.12352539 13.31616211 2.11352539 C13.81116211 20.42852539 13.81116211 20.42852539 14.31616211 39.11352539 C12.00616211 39.11352539 9.69616211 39.11352539 7.31616211 39.11352539 C7.64616211 26.90352539 7.97616211 14.69352539 8.31616211 2.11352539 C5.67616211 2.44352539 3.03616211 2.77352539 0.31616211 3.11352539 C0.31616211 3.77352539 0.31616211 4.43352539 0.31616211 5.11352539 C-1.00383789 5.44352539 -2.32383789 5.77352539 -3.68383789 6.11352539 C-3.72655889 4.44740634 -3.72447621 2.77969654 -3.68383789 1.11352539 C-2.68383789 0.11352539 -2.68383789 0.11352539 0 0 Z " fill="#745659" transform="translate(259.683837890625,245.886474609375)"/>
<path d="M0 0 C8.3984375 -0.1953125 8.3984375 -0.1953125 11 0 C13 2 13 2 13.16015625 3.91015625 C13.11181641 4.97556641 13.11181641 4.97556641 13.0625 6.0625 C13.041875 7.361875 13.02125 8.66125 13 10 C13.33 10.33 13.66 10.66 14 11 C14.14115161 13.67058851 14.04247107 16.32432238 14 19 C9.36297289 20.5456757 4.87528349 20.05735628 0 20 C0 13.4 0 6.8 0 0 Z " fill="#5B494B" transform="translate(166,308)"/>
<path d="M0 0 C0.45134751 3.83645386 -0.25861315 6.24399526 -2.52734375 9.3828125 C-8.4289291 15.86359853 -14.81943512 20.07363093 -23.5625 20.75 C-24.69816406 20.84796875 -25.83382813 20.9459375 -27.00390625 21.046875 C-30 21 -30 21 -33 19 C-36.19920361 19.33325038 -38.94858478 19.98286159 -42 21 C-43.72795352 21.06802967 -45.45835365 21.08495645 -47.1875 21.0625 C-48.53908203 21.04896484 -48.53908203 21.04896484 -49.91796875 21.03515625 C-50.60503906 21.02355469 -51.29210937 21.01195312 -52 21 C-52 20.67 -52 20.34 -52 20 C-48.04 19.67 -44.08 19.34 -40 19 C-40 18.34 -40 17.68 -40 17 C-32.25 16.875 -32.25 16.875 -30 18 C-30 17.34 -30 16.68 -30 16 C-26.9637794 14.98792647 -24.09334859 14.45516654 -20.9375 13.9375 C-19.87402344 13.76089844 -18.81054688 13.58429688 -17.71484375 13.40234375 C-15 13 -15 13 -13 13 C-13.03222656 12.39671875 -13.06445312 11.7934375 -13.09765625 11.171875 C-13.05930552 8.52993589 -12.88950446 6.49662846 -12 4 C-8.36861549 1.24938867 -4.53004062 0 0 0 Z " fill="#DFA3A5" transform="translate(414,232)"/>
<path d="M0 0 C0 0.66 0 1.32 0 2 C0.928125 2.12375 0.928125 2.12375 1.875 2.25 C4 3 4 3 5.11328125 4.76953125 C6.97200584 9.44500147 6.67721587 14.3247818 4.8125 18.9375 C2.6178485 21.43486205 1.23789661 22.24700079 -2 23 C-5.3125 22.625 -5.3125 22.625 -8 22 C-8 21.01 -8 20.02 -8 19 C-5.03 19 -2.06 19 1 19 C1.66 17.68 2.32 16.36 3 15 C2.34 15.33 1.68 15.66 1 16 C-2.375 16.375 -2.375 16.375 -6 16 C-9.1190035 13.28086874 -9.93764029 11.82626618 -10.25 7.6875 C-10.1675 6.800625 -10.085 5.91375 -10 5 C-8.68 4.34 -7.36 3.68 -6 3 C-6 2.01 -6 1.02 -6 0 C-3.50907189 -1.24546405 -2.58919267 -0.7767578 0 0 Z " fill="#110808" transform="translate(315,306)"/>
<path d="M0 0 C1.65 0.33 3.3 0.66 5 1 C5.66 3.64 6.32 6.28 7 9 C7.66 9 8.32 9 9 9 C10.32 6.03 11.64 3.06 13 0 C14.65 0 16.3 0 18 0 C19.25433458 3.76300374 19.10695422 7.27210909 19.0625 11.1875 C19.05798828 11.93708984 19.05347656 12.68667969 19.04882812 13.45898438 C19.03706354 15.30602383 19.01912865 17.15302213 19 19 C18.01 19 17.02 19 16 19 C15.67 16.36 15.34 13.72 15 11 C14.01 11.33 13.02 11.66 12 12 C11.67 13.65 11.34 15.3 11 17 C9.125 16.75 9.125 16.75 7 16 C5.875 14 5.875 14 5 12 C4.34 11.67 3.68 11.34 3 11 C2.67 13.97 2.34 16.94 2 20 C-2.29 20 -6.58 20 -11 20 C-11 19.34 -11 18.68 -11 18 C-7.7 18 -4.4 18 -1 18 C-0.505 9.09 -0.505 9.09 0 0 Z " fill="#2E2021" transform="translate(212,308)"/>
<path d="M0 0 C5.84352076 1.31479217 10.15424237 4.4982496 14 9 C16.8730311 14.34775561 17.44524979 18.61408952 17.3125 24.625 C17.31572266 25.36234375 17.31894531 26.0996875 17.32226562 26.859375 C17.27124968 32.03517418 16.91976466 35.96601593 13.29296875 39.80859375 C3.69037023 47.23769131 -6.60004539 52.57202172 -19 52 C-21.33817209 51.35050775 -23.67126625 50.68255989 -26 50 C-30.6713574 49.81933977 -35.32743732 49.88334795 -40 50 C-40 49.67 -40 49.34 -40 49 C-39.17757813 48.92523438 -38.35515625 48.85046875 -37.5078125 48.7734375 C-27.39048081 47.58178873 -20.98077384 44.0624926 -13 38 C-13.33 39.65 -13.66 41.3 -14 43 C-14.598125 43.0825 -15.19625 43.165 -15.8125 43.25 C-18.60170874 44.20630014 -19.34476293 45.62860019 -21 48 C-9.49108593 48.83532441 -0.623456 46.39410835 9 40 C10.57115754 38.3696042 10.57115754 38.3696042 11.75 36.5625 C12.15734375 35.98628906 12.5646875 35.41007812 12.984375 34.81640625 C15.68242881 29.99104079 15.581701 24.37265507 15 19 C12.95403838 12.58413123 9.06517341 7.81123883 3.25 4.375 C1 3 1 3 0 0 Z " fill="#1E1212" transform="translate(424,204)"/>
<path d="M0 0 C2.47189851 1.94220597 2.97912836 2.93738507 4 6 C4.14449151 7.97564353 4.22061999 9.95679761 4.25 11.9375 C4.28867187 13.49791016 4.28867187 13.49791016 4.328125 15.08984375 C3.96423357 18.31721419 3.16358594 19.63713641 1 22 C-1.64 21.34 -4.28 20.68 -7 20 C-7.90340076 16.38639696 -8.1648261 13.56631036 -8.1875 9.875 C-8.20167969 8.82054687 -8.21585937 7.76609375 -8.23046875 6.6796875 C-8 4 -8 4 -6 2 C-6.33 1.34 -6.66 0.68 -7 0 C-4.26634878 -1.36682561 -2.89333621 -0.84683011 0 0 Z " fill="#281E1E" transform="translate(299,308)"/>
<path d="M0 0 C0.66 0 1.32 0 2 0 C1.21589968 9.21317873 -2.73664059 15.4663336 -9.71875 21.48046875 C-14.45796488 24.82935274 -18.57440675 25.12419123 -24.25 25.0625 C-25.32765625 25.05347656 -26.4053125 25.04445313 -27.515625 25.03515625 C-28.33546875 25.02355469 -29.1553125 25.01195312 -30 25 C-28.62583286 22.25166571 -27.23528269 22.20285715 -24.375 21.1875 C-16.67208603 18.19618348 -11.88233164 14.25422067 -6.67578125 7.8671875 C-5 6 -5 6 -2.85546875 4.4453125 C-0.70816955 3.04799871 -0.70816955 3.04799871 0 0 Z " fill="#E1A9AC" transform="translate(321,264)"/>
<path d="M0 0 C2.46762952 3.70144427 2.55396313 6.70678574 2 11 C0.55884815 13.9581538 -0.29829958 14.74147879 -3.375 15.875 C-6.46773565 16.02227313 -8.2748619 15.43826733 -11 14 C-12.35439668 11.29120665 -12.06501451 8.99066732 -12 6 C-11.34 6 -10.68 6 -10 6 C-10 4.02 -10 2.04 -10 0 C-6.24260149 -2.60127589 -4.02666309 -1.83825924 0 0 Z " fill="#0D0706" transform="translate(282,311)"/>
<path d="M0 0 C0.74958984 0.00451172 1.49917969 0.00902344 2.27148438 0.01367188 C4.11852383 0.02543646 5.96552213 0.04337135 7.8125 0.0625 C8.4725 3.0325 9.1325 6.0025 9.8125 9.0625 C9.049375 8.258125 8.28625 7.45375 7.5 6.625 C3.37567551 2.69250455 -0.22948648 2.7176908 -5.6796875 2.78125 C-10.40251693 3.31091311 -13.02337564 5.74315906 -16.0625 9.1875 C-18.51476108 15.45438942 -17.80356968 22.12957314 -15.16796875 28.2421875 C-13.07821628 32.12196699 -10.74657728 35.20090466 -6.8125 37.375 C-3.6239073 38.21010761 -0.45890409 38.67762893 2.8125 39.0625 C2.8125 39.3925 2.8125 39.7225 2.8125 40.0625 C-4.16068967 40.56760026 -8.50802166 40.29426818 -14.1875 36.0625 C-18.20290955 32.16456254 -20.80285938 28.05464619 -21.5234375 22.44921875 C-21.62686459 15.30240669 -20.75877658 9.80161726 -15.69140625 4.49609375 C-10.63245624 0.06793551 -6.4344239 -0.07305459 0 0 Z " fill="#D8A2A9" transform="translate(101.1875,245.9375)"/>
<path d="M0 0 C1.65 0 3.3 0 5 0 C5 12.21 5 24.42 5 37 C16.02403783 36.49671644 16.02403783 36.49671644 26 34 C25.67 35.32 25.34 36.64 25 38 C16.42 38 7.84 38 -1 38 C-0.67 37.34 -0.34 36.68 0 36 C0.08675538 33.30106819 0.11557897 30.62830769 0.09765625 27.9296875 C0.0962413 27.13345978 0.09482635 26.33723206 0.09336853 25.51687622 C0.08776345 22.9695462 0.07521014 20.42230353 0.0625 17.875 C0.05748565 16.14974085 0.05292263 14.42448033 0.04882812 12.69921875 C0.03779237 8.46611209 0.02052436 4.23307086 0 0 Z " fill="#CA979C" transform="translate(119,247)"/>
<path d="M0 0 C0.33 0 0.66 0 1 0 C1.0246519 4.82380802 1.04283693 9.64757967 1.05493164 14.47143555 C1.05997174 16.11369464 1.06680378 17.75594923 1.07543945 19.39819336 C1.08751926 21.75375479 1.09323139 24.10925709 1.09765625 26.46484375 C1.10281754 27.20339096 1.10797882 27.94193817 1.11329651 28.7028656 C1.1134925 30.46898088 1.06194719 32.23497146 1 34 C0.67 34.33 0.34 34.66 0 35 C8.25 35.33 16.5 35.66 25 36 C25 36.33 25 36.66 25 37 C23.99622314 36.99476318 22.99244629 36.98952637 21.95825195 36.98413086 C18.22160743 36.9659826 14.48496679 36.95453213 10.74829102 36.94506836 C9.13337549 36.94005058 7.51846448 36.93323489 5.90356445 36.92456055 C3.57762535 36.91238286 1.2517465 36.90674605 -1.07421875 36.90234375 C-1.79212082 36.89718246 -2.51002289 36.89202118 -3.24967957 36.88670349 C-6.97408554 36.88629 -10.37275958 37.17017556 -14 38 C-15.93651019 38.06533435 -17.87502861 38.08584303 -19.8125 38.0625 C-20.78832031 38.05347656 -21.76414062 38.04445313 -22.76953125 38.03515625 C-23.87361328 38.01775391 -23.87361328 38.01775391 -25 38 C-24.01 37.34 -23.02 36.68 -22 36 C-22.99 35.34 -23.98 34.68 -25 34 C-21.04 34 -17.08 34 -13 34 C-12.7525 33.05125 -12.505 32.1025 -12.25 31.125 C-11 28 -11 28 -9.0625 26.625 C-7 26 -7 26 -4 26 C-3.67 27.98 -3.34 29.96 -3 32 C-2.01 32 -1.02 32 0 32 C0 21.44 0 10.88 0 0 Z " fill="#372425" transform="translate(119,249)"/>
<path d="M0 0 C1.53921449 4.74667942 0.21090884 8.3148832 -1.4375 12.8125 C-1.68048828 13.50537109 -1.92347656 14.19824219 -2.17382812 14.91210938 C-2.77169616 16.61193025 -3.38438482 18.30652572 -4 20 C-7.76993357 18.2496737 -9.76552794 16.59111581 -12 13 C-12.62347637 8.01218907 -12.06233637 5.00459372 -9 1 C-6.04335481 -0.4783226 -3.25770263 -0.06032783 0 0 Z " fill="#0D0505" transform="translate(304,197)"/>
<path d="M0 0 C1.32 0 2.64 0 4 0 C3.67 2.31 3.34 4.62 3 7 C5.97 7 8.94 7 12 7 C12 4.69 12 2.38 12 0 C13.32 0 14.64 0 16 0 C16 6.6 16 13.2 16 20 C14.68 20 13.36 20 12 20 C12 16.37 12 12.74 12 9 C9.36 9 6.72 9 4 9 C4.33 12.63 4.66 16.26 5 20 C3.35 20 1.7 20 0 20 C0 13.4 0 6.8 0 0 Z " fill="#695859" transform="translate(183,308)"/>
<path d="M0 0 C0.66 0.33 1.32 0.66 2 1 C1.071875 1.61875 1.071875 1.61875 0.125 2.25 C-2.06768281 4.05573879 -2.92788417 5.4090534 -4 8 C-4.66 8 -5.32 8 -6 8 C-6.10887507 10.68860931 -6.18770594 13.37273158 -6.25 16.0625 C-6.28351563 16.81466797 -6.31703125 17.56683594 -6.3515625 18.34179688 C-6.45089305 24.07813642 -5.32386333 27.29910758 -2 32 C-0.0796712 33.75736512 1.71270926 34.70040299 4 36 C2.375 36.75 2.375 36.75 0 37 C-5.41277294 34.58152698 -7.65455741 31.04816296 -10.0859375 25.72265625 C-12.03716118 19.91067804 -11.61491714 14.97420767 -9.8125 9.1875 C-7.30404961 4.77608724 -4.89092832 1.63030944 0 0 Z " fill="#D8A7AB" transform="translate(161,248)"/>
<path d="M0 0 C1.65 0.33 3.3 0.66 5 1 C4.25 6.75 4.25 6.75 2 9 C2.33 7.02 2.66 5.04 3 3 C0.64214682 3.89335797 0.64214682 3.89335797 -0.125 7.0625 C-0.41375 8.031875 -0.7025 9.00125 -1 10 C-0.34 10 0.32 10 1 10 C-0.22569624 16.78173689 -2.26474902 22.07180255 -5.625 28.0625 C-6.04523438 28.83271484 -6.46546875 29.60292969 -6.8984375 30.39648438 C-7.9223552 32.26978835 -8.95976373 34.13570824 -10 36 C-11.19022109 32.56043356 -10.80645899 30.6445023 -9.56640625 27.26171875 C-9.24736328 26.35873047 -8.92832031 25.45574219 -8.59960938 24.52539062 C-7.9124414 22.64506092 -7.2249455 20.76485102 -6.53710938 18.88476562 C-4.69894728 13.68095461 -3.5655794 9.52552523 -4 4 C-3.01 4 -2.02 4 -1 4 C-0.67 2.68 -0.34 1.36 0 0 Z " fill="#D8A5AB" transform="translate(309,192)"/>
<path d="M0 0 C0.28875 0.61875 0.5775 1.2375 0.875 1.875 C1.93720042 4.13325765 1.93720042 4.13325765 4 6 C2.71034824 7.37562854 1.37310707 8.70766393 0 10 C-0.66 10 -1.32 10 -2 10 C-2.18175781 10.67546875 -2.36351562 11.3509375 -2.55078125 12.046875 C-2.80214844 12.93890625 -3.05351562 13.8309375 -3.3125 14.75 C-3.55613281 15.63171875 -3.79976563 16.5134375 -4.05078125 17.421875 C-5.02125331 20.05772505 -6.21005644 21.85407326 -8 24 C-9.32 23.67 -10.64 23.34 -12 23 C-12.33 23.99 -12.66 24.98 -13 26 C-15.27208411 27.51472274 -17.56019185 28.78009593 -20 30 C-20.66 29.34 -21.32 28.68 -22 28 C-21.46890625 27.62488281 -20.9378125 27.24976563 -20.390625 26.86328125 C-19.68421875 26.35152344 -18.9778125 25.83976562 -18.25 25.3125 C-17.55390625 24.81363281 -16.8578125 24.31476563 -16.140625 23.80078125 C-11.20318937 19.64720858 -8.35653287 14.32654787 -5.3125 8.75 C-1.10812133 1.10812133 -1.10812133 1.10812133 0 0 Z " fill="#DBA6AA" transform="translate(355,248)"/>
<path d="M0 0 C1.32 0 2.64 0 4 0 C4 12.54 4 25.08 4 38 C2.35 38 0.7 38 -1 38 C-0.67 37.34 -0.34 36.68 0 36 C0.08675538 33.30106819 0.11557897 30.62830769 0.09765625 27.9296875 C0.0962413 27.13345978 0.09482635 26.33723206 0.09336853 25.51687622 C0.08776345 22.9695462 0.07521014 20.42230353 0.0625 17.875 C0.05748565 16.14974085 0.05292263 14.42448033 0.04882812 12.69921875 C0.03779237 8.46611209 0.02052436 4.23307086 0 0 Z " fill="#E9B1B0" transform="translate(227,247)"/>
<path d="M0 0 C0.99 0 1.98 0 3 0 C3.02505615 1.01425049 3.0501123 2.02850098 3.07592773 3.07348633 C3.17009645 6.83631027 3.27029405 10.59895369 3.37231445 14.36157227 C3.41562749 15.99011004 3.45730518 17.61869216 3.49731445 19.24731445 C3.55510503 21.58818935 3.61877398 23.92884176 3.68359375 26.26953125 C3.70030624 26.99775589 3.71701874 27.72598053 3.73423767 28.47627258 C3.82467238 31.56166939 4.01723993 34.05171978 5 37 C2.69 37 0.38 37 -2 37 C-1.67 36.34 -1.34 35.68 -1 35 C-0.84339117 32.37619687 -0.7417092 29.77475148 -0.68359375 27.1484375 C-0.6524221 25.98738998 -0.6524221 25.98738998 -0.62062073 24.80288696 C-0.55516552 22.32701608 -0.49625913 19.85103798 -0.4375 17.375 C-0.39431093 15.69790552 -0.35069652 14.02082193 -0.30664062 12.34375 C-0.19948829 8.22927692 -0.09820955 4.11469586 0 0 Z " fill="#E5B3B9" transform="translate(269,248)"/>
<path d="M0 0 C4.62 0 9.24 0 14 0 C14.33 0.99 14.66 1.98 15 3 C11.04 2.67 7.08 2.34 3 2 C3 7.28 3 12.56 3 18 C4.423125 17.855625 5.84625 17.71125 7.3125 17.5625 C8.11300781 17.48128906 8.91351563 17.40007812 9.73828125 17.31640625 C12.16087179 17.04734307 12.16087179 17.04734307 15 16 C14.67 17.32 14.34 18.64 14 20 C9.38 20 4.76 20 0 20 C0 13.4 0 6.8 0 0 Z " fill="#7E6266" transform="translate(234,308)"/>
<path d="M0 0 C6.58623418 1.90268987 6.58623418 1.90268987 9 5 C9.80000732 9.18827361 9.40187692 13.0058834 7.8125 16.9375 C5.6178485 19.43486205 4.23789661 20.24700079 1 21 C-2.3125 20.625 -2.3125 20.625 -5 20 C-5 19.01 -5 18.02 -5 17 C-2.03 17 0.94 17 4 17 C4.66 15.68 5.32 14.36 6 13 C5.01 13.495 5.01 13.495 4 14 C0.625 14.375 0.625 14.375 -3 14 C-5.4375 11.6875 -5.4375 11.6875 -7 9 C-7 8.01 -7 7.02 -7 6 C-6.34 6 -5.68 6 -5 6 C-4.5875 6.825 -4.175 7.65 -3.75 8.5 C-3.1725 9.325 -2.595 10.15 -2 11 C1.08461971 11.50042146 1.08461971 11.50042146 4 11 C5.35618499 9.87465895 5.35618499 9.87465895 5.0625 6.9375 C5.041875 5.968125 5.02125 4.99875 5 4 C2.525 3.01 2.525 3.01 0 2 C0 1.34 0 0.68 0 0 Z " fill="#433336" transform="translate(312,308)"/>
<path d="M0 0 C0.66 0 1.32 0 2 0 C2 1.32 2 2.64 2 4 C2.66 3.34 3.32 2.68 4 2 C4.33 3.98 4.66 5.96 5 8 C6.36125 8.433125 6.36125 8.433125 7.75 8.875 C11 10 11 10 12.94921875 11.00390625 C19.67551911 14.27096643 27.664285 14.47895856 35 15 C35 15.33 35 15.66 35 16 C24.045595 17.36006108 15.32664798 17.61318082 6 10.8125 C5.34 10.214375 4.68 9.61625 4 9 C3.01 8.67 2.02 8.34 1 8 C0.67 9.32 0.34 10.64 0 12 C-0.33 11.34 -0.66 10.68 -1 10 C-0.67 9.01 -0.34 8.02 0 7 C-0.66 7 -1.32 7 -2 7 C-1.125 1.125 -1.125 1.125 0 0 Z " fill="#6D5558" transform="translate(310,195)"/>
<path d="M0 0 C0.99 0 1.98 0 3 0 C3.0810206 2.10353495 3.13919907 4.20795952 3.1875 6.3125 C3.23970703 8.07013672 3.23970703 8.07013672 3.29296875 9.86328125 C3 13 3 13 1.61328125 14.91796875 C0 16 0 16 -2 16 C-2 16.66 -2 17.32 -2 18 C-6.56184533 20.35450082 -10.98051632 20.83253916 -16 20 C-19.19710255 18.61184806 -22.0964407 16.92197779 -25 15 C-25 13.35 -25 11.7 -25 10 C-21.6092481 11.45317939 -19.58699688 13.41300312 -17 16 C-12.90794578 17.36401807 -9.00927079 17.64779769 -4.85546875 16.30859375 C-2.78064414 15.11512908 -2.78064414 15.11512908 -2.171875 12.6171875 C-2.03265625 11.71226562 -1.8934375 10.80734375 -1.75 9.875 C-1.60046875 8.96492188 -1.4509375 8.05484375 -1.296875 7.1171875 C-1.19890625 6.41851562 -1.1009375 5.71984375 -1 5 C-0.67 5 -0.34 5 0 5 C0.33 7.31 0.66 9.62 1 12 C1.02712066 10.56260487 1.04645067 9.12506137 1.0625 7.6875 C1.07410156 6.88699219 1.08570313 6.08648437 1.09765625 5.26171875 C1.09657855 2.83138666 1.09657855 2.83138666 0 0 Z " fill="#604C4E" transform="translate(219,267)"/>
<path d="M0 0 C4.24822374 0.47202486 6.19989709 2.96655518 9 6 C9.309375 5.38125 9.61875 4.7625 9.9375 4.125 C10.625 2.75 11.3125 1.375 12 0 C12.99 0.33 13.98 0.66 15 1 C14.34 1.66 13.68 2.32 13 3 C12.71804014 5.79601462 12.71804014 5.79601462 12.8125 8.9375 C12.81894531 9.99839844 12.82539063 11.05929687 12.83203125 12.15234375 C12.88068831 15.07509523 12.88068831 15.07509523 14 18 C11 17 11 17 9 14 C8.01 13.67 7.02 13.34 6 13 C5.34 14.32 4.68 15.64 4 17 C3.67 16.34 3.34 15.68 3 15 C3.33 14.34 3.66 13.68 4 13 C4.54917877 7.12546807 4.54917877 7.12546807 2 2 C1.34 1.34 0.68 0.68 0 0 Z " fill="#8C7879" transform="translate(279,309)"/>
<path d="M0 0 C0.66 0.33 1.32 0.66 2 1 C2 1.66 2 2.32 2 3 C2.66 3 3.32 3 4 3 C4.71679007 10.62983206 3.64535142 15.82641286 -1 22 C-2.93814682 24.1661641 -4.50251064 25.40585785 -7 27 C-9.375 26.8125 -9.375 26.8125 -11 26 C-9.56770833 25.15364583 -8.13541667 24.30729167 -6.703125 23.4609375 C-2.96531869 20.25465411 -0.85215295 16.80330319 -0.390625 11.9140625 C-0.32507669 10.48510938 -0.27844828 9.05517282 -0.25 7.625 C-0.20552734 6.52091797 -0.20552734 6.52091797 -0.16015625 5.39453125 C-0.09011967 3.5969257 -0.04271881 1.7984621 0 0 Z " fill="#D2A3A7" transform="translate(185,258)"/>
<path d="M0 0 C-3.42702968 2.28468646 -6.96773367 3.55366298 -10.8125 4.9375 C-15.71926055 6.70574274 -20.32918113 8.66125903 -25 11 C-27.76863022 11.83825126 -30.22277864 12.1195244 -33.109375 12.09765625 C-33.86347656 12.09443359 -34.61757813 12.09121094 -35.39453125 12.08789062 C-36.17183594 12.07951172 -36.94914062 12.07113281 -37.75 12.0625 C-38.54277344 12.05798828 -39.33554687 12.05347656 -40.15234375 12.04882812 C-42.10159508 12.03708565 -44.05080738 12.01915146 -46 12 C-46 11.67 -46 11.34 -46 11 C-45.35675781 10.97421875 -44.71351563 10.9484375 -44.05078125 10.921875 C-32.8009564 10.2157519 -22.81660709 6.5464913 -12.55859375 2.05078125 C-8.20040207 0.26092849 -4.71996669 -0.10727197 0 0 Z " fill="#7B6568" transform="translate(380,200)"/>
<path d="M0 0 C1.42376318 2.84752635 0.51354329 4.91874027 0 8 C0.33 8.66 0.66 9.32 1 10 C1.375 12.875 1.375 12.875 1 16 C-2.04382539 19.21775827 -4.61895002 20.49930857 -9 21 C-6.76686274 13.55620912 -3.59727921 6.88023305 0 0 Z " fill="#4B3737" transform="translate(305,215)"/>
<path d="M0 0 C0.99 0.33 1.98 0.66 3 1 C3 7.6 3 14.2 3 21 C-0.31243305 21.82810826 -2.65976579 22.09278428 -6 22 C-3 20 -3 20 0 20 C-0.144375 18.741875 -0.28875 17.48375 -0.4375 16.1875 C-0.51871094 15.47980469 -0.59992188 14.77210938 -0.68359375 14.04296875 C-0.97170735 11.80603607 -0.97170735 11.80603607 -2 9 C-2.1875 5.4375 -2.1875 5.4375 -2 2 C-1.34 1.34 -0.68 0.68 0 0 Z " fill="#1F1111" transform="translate(180,307)"/>
<path d="M0 0 C5.84352076 1.31479217 10.15424237 4.4982496 14 9 C16.88340615 14.36615677 17.46979455 18.71474708 17.375 24.75 C17.38660156 25.50410156 17.39820313 26.25820312 17.41015625 27.03515625 C17.38105852 32.49583027 17.38105852 32.49583027 15.4765625 35.015625 C14.74566406 35.50289062 14.74566406 35.50289062 14 36 C14.165 35.05125 14.33 34.1025 14.5 33.125 C15.6186201 24.86056795 15.87674248 18.09344361 11 11 C8.55779723 8.18207373 6.45501929 6.26887503 3.25 4.375 C1 3 1 3 0 0 Z " fill="#4A3F41" transform="translate(424,204)"/>
<path d="M0 0 C0.4171331 3.54563138 -0.02328252 5.04323897 -1.75 8.25 C-4 11 -4 11 -6.25 11.875 C-6.8275 11.91625 -7.405 11.9575 -8 12 C-8 11.34 -8 10.68 -8 10 C-8.99 10 -9.98 10 -11 10 C-11.3125 7.6875 -11.3125 7.6875 -11 5 C-8.6875 3.3125 -8.6875 3.3125 -6 2 C-3 0 -3 0 0 0 Z " fill="#EDB3B5" transform="translate(414,232)"/>
<path d="M0 0 C1.41866984 2.83733967 0.788263 4.76160696 0.3125 7.875 C0.16425781 8.92429688 0.01601563 9.97359375 -0.13671875 11.0546875 C-1.1158108 14.39511921 -2.37037974 15.78276418 -5 18 C-4.67 15.69 -4.34 13.38 -4 11 C-6.31 11.33 -8.62 11.66 -11 12 C-11 12.66 -11 13.32 -11 14 C-11.66 14 -12.32 14 -13 14 C-13.33 15.65 -13.66 17.3 -14 19 C-14.66 19 -15.32 19 -16 19 C-15.67 16.69 -15.34 14.38 -15 12 C-13.3767313 11.3291288 -11.75132422 10.66342971 -10.125 10 C-9.22007812 9.62875 -8.31515625 9.2575 -7.3828125 8.875 C-5 8 -5 8 -3 8 C-3 6.68 -3 5.36 -3 4 C-2.34 4 -1.68 4 -1 4 C-0.67 2.68 -0.34 1.36 0 0 Z " fill="#312728" transform="translate(296,227)"/>
<path d="M0 0 C2.875 -0.125 2.875 -0.125 6 0 C6.66 0.66 7.32 1.32 8 2 C7.690625 2.9075 7.38125 3.815 7.0625 4.75 C6.2727737 7.16563338 5.57050703 9.52780285 5 12 C2.5625 11.625 2.5625 11.625 0 11 C-1.49297212 8.01405576 -1.11755228 5.29146376 -1 2 C-0.67 1.34 -0.34 0.68 0 0 Z " fill="#F9B4B4" transform="translate(315,240)"/>
<path d="M0 0 C-0.33 1.98 -0.66 3.96 -1 6 C-2.43554025 6.50559908 -3.8735202 7.0042749 -5.3125 7.5 C-6.51326172 7.91765625 -6.51326172 7.91765625 -7.73828125 8.34375 C-10 9 -10 9 -13 9 C-12.4375 5.625 -12.4375 5.625 -11 2 C-7.08395162 0.33205347 -4.25469323 0 0 0 Z " fill="#E2ABB1" transform="translate(384,263)"/>
<path d="M0 0 C1.31226563 -0.02835938 2.62453125 -0.05671875 3.9765625 -0.0859375 C7.375 0.375 7.375 0.375 9.32421875 2.2265625 C10.5717383 4.77725303 10.60876559 6.5698129 10.375 9.375 C9.715 9.045 9.055 8.715 8.375 8.375 C8.375 7.715 8.375 7.055 8.375 6.375 C7.715 6.375 7.055 6.375 6.375 6.375 C5.715 5.385 5.055 4.395 4.375 3.375 C1.58240374 2.97136262 1.58240374 2.97136262 -1.5625 3.125 C-3.15384766 3.14820313 -3.15384766 3.14820313 -4.77734375 3.171875 C-7.69931256 3.26203325 -7.69931256 3.26203325 -10.625 4.375 C-10.955 7.015 -11.285 9.655 -11.625 12.375 C-11.955 12.375 -12.285 12.375 -12.625 12.375 C-12.769375 11.42625 -12.91375 10.4775 -13.0625 9.5 C-13.45435399 6.4815506 -13.45435399 6.4815506 -14.625 4.375 C-13.965 4.375 -13.305 4.375 -12.625 4.375 C-12.625 3.715 -12.625 3.055 -12.625 2.375 C-8.36054677 0.3168662 -4.70978112 0.04644755 0 0 Z " fill="#816C6E" transform="translate(208.625,245.625)"/>
<path d="M0 0 C0.66 2.97 1.32 5.94 2 9 C1.236875 8.195625 0.47375 7.39125 -0.3125 6.5625 C-4.44112474 2.62590432 -8.04060387 2.67133734 -13.4921875 2.703125 C-17.07624159 3.12740555 -19.23131321 4.77154478 -22 7 C-22.99 7.33 -23.98 7.66 -25 8 C-23.8696512 4.48335929 -21.76548263 2.51223459 -18.55078125 0.75 C-12.62888684 -0.99120019 -6.10704035 -0.26392971 0 0 Z " fill="#957F81" transform="translate(109,246)"/>
<path d="M0 0 C9.9 0 19.8 0 30 0 C30 1.98 30 3.96 30 6 C25.25 4.125 25.25 4.125 23 3 C20.39207808 2.7915978 17.79945562 2.62559715 15.1875 2.5 C10.71940915 2.28164986 6.36999495 2.03025421 2 1 C1.67 1.66 1.34 2.32 1 3 C0.67 2.01 0.34 1.02 0 0 Z " fill="#584847" transform="translate(225,246)"/>
<path d="M0 0 C3.61094692 3.36543149 3.74977201 5.89318934 4.06640625 10.74609375 C3.89769488 19.01295074 2.64575486 26.75810954 -3 33 C-2.53781923 29.30255387 -1.98354627 25.94166406 -0.96875 22.34375 C0.21480108 17.7000082 0.22593432 13.26720553 0.125 8.5 C0.11597656 7.67757812 0.10695313 6.85515625 0.09765625 6.0078125 C0.07436865 4.00507917 0.03850959 2.00249846 0 0 Z " fill="#100303" transform="translate(324,241)"/>
<path d="M0 0 C3.11511978 0.24593051 4.60407611 0.61727357 6.875 2.8125 C8 5 8 5 7.6875 7.25 C7.460625 7.8275 7.23375 8.405 7 9 C7 8.01 7 7.02 7 6 C4.36 5.67 1.72 5.34 -1 5 C-1 8.63 -1 12.26 -1 16 C0.32 16.66 1.64 17.32 3 18 C-2.875 17.125 -2.875 17.125 -4 16 C-4.4759384 10.1697546 -3.26847563 6.26286347 -1 1 C-0.67 0.67 -0.34 0.34 0 0 Z " fill="#C79A9B" transform="translate(316,235)"/>
<path d="M0 0 C9.90877426 0.18792503 9.90877426 0.18792503 13.6875 3 C15.47105436 7.07669569 15.3436981 10.61784925 15 15 C14.01 15.495 14.01 15.495 13 16 C12.938125 14.1128125 12.938125 14.1128125 12.875 12.1875 C12.69235511 9.99010474 12.69235511 9.99010474 12 8 C9.08158143 5.91367303 9.08158143 5.91367303 6 5 C6 4.34 6 3.68 6 3 C3.03 2.505 3.03 2.505 0 2 C0 1.34 0 0.68 0 0 Z " fill="#C6999E" transform="translate(206,264)"/>
<path d="M0 0 C1.32 0 2.64 0 4 0 C3.67 6.6 3.34 13.2 3 20 C2.01 20 1.02 20 0 20 C0 13.4 0 6.8 0 0 Z " fill="#886C6E" transform="translate(183,308)"/>
<path d="M0 0 C2.33294775 -0.04241723 4.66702567 -0.04092937 7 0 C8 1 8 1 8.0625 4.0625 C8.041875 5.031875 8.02125 6.00125 8 7 C5.36 7.33 2.72 7.66 0 8 C0 5.36 0 2.72 0 0 Z " fill="#080302" transform="translate(254,310)"/>
<path d="M0 0 C0.33 0.99 0.66 1.98 1 3 C0.01 3.99 -0.98 4.98 -2 6 C-2.99 5.67 -3.98 5.34 -5 5 C-5.144375 5.61875 -5.28875 6.2375 -5.4375 6.875 C-6 9 -6 9 -7 11 C-9.64860427 11.59355614 -12.29197322 11.74209269 -15 12 C-15 11.34 -15 10.68 -15 10 C-12.64232504 7.92524604 -10.04591731 6.45044086 -7.3125 4.9375 C-3.96434085 3.38390486 -3.96434085 3.38390486 -3 1 C-2.01 0.67 -1.02 0.34 0 0 Z " fill="#F7B5B6" transform="translate(346,270)"/>
<path d="M0 0 C5.28 0 10.56 0 16 0 C16 0.33 16 0.66 16 1 C11.05 1 6.1 1 1 1 C1 4.96 1 8.92 1 13 C6.94 13 12.88 13 19 13 C19.33 13.99 19.66 14.98 20 16 C18.625 17.5 18.625 17.5 17 19 C16.34 19 15.68 19 15 19 C15 18.34 15 17.68 15 17 C15.66 17 16.32 17 17 17 C17 16.01 17 15.02 17 14 C11.39 14 5.78 14 0 14 C0 9.38 0 4.76 0 0 Z " fill="#2B1B1C" transform="translate(232,248)"/>
<path d="M0 0 C0.33 0 0.66 0 1 0 C1.33 2.31 1.66 4.62 2 7 C4.97 7.99 7.94 8.98 11 10 C11.29296875 15.95703125 11.29296875 15.95703125 11 18 C10.01 18.99 9.02 19.98 8 21 C8 18.03 8 15.06 8 12 C6.68 11.67 5.36 11.34 4 11 C3.67 11.99 3.34 12.98 3 14 C-1.06153846 7.96923077 -1.06153846 7.96923077 -0.75 3.0625 C-0.5025 2.051875 -0.255 1.04125 0 0 Z " fill="#251111" transform="translate(311,244)"/>
<path d="M0 0 C0.99 0 1.98 0 3 0 C1.07748212 5.76755364 -4.81187433 8.86489212 -10.01953125 11.56640625 C-15.51002777 13.99051226 -19.98560915 15.68345351 -26 15 C-26 14.67 -26 14.34 -26 14 C-25.07380859 13.74476563 -25.07380859 13.74476563 -24.12890625 13.484375 C-11.79042334 9.95873573 -11.79042334 9.95873573 -2 2 C-1.34 1.34 -0.68 0.68 0 0 Z " fill="#362E30" transform="translate(437,239)"/>
<path d="M0 0 C2.33294775 -0.04241723 4.66702567 -0.04092937 7 0 C8 1 8 1 8.0625 3.5625 C8.041875 4.366875 8.02125 5.17125 8 6 C5.29120665 7.35439668 2.99066732 7.06501451 0 7 C0 4.69 0 2.38 0 0 Z " fill="#140709" transform="translate(170,319)"/>
<path d="M0 0 C0.33 0 0.66 0 1 0 C1.02505615 0.98395752 1.0501123 1.96791504 1.07592773 2.98168945 C1.1701082 6.63270057 1.2703029 10.28352616 1.37231445 13.93432617 C1.41562305 15.51436015 1.45730106 17.09443969 1.49731445 18.67456055 C1.55511583 20.94594048 1.6187816 23.21709189 1.68359375 25.48828125 C1.70030624 26.19463211 1.71701874 26.90098297 1.73423767 27.6287384 C1.8259747 30.6664824 2.03207686 33.09623058 3 36 C0.69 36 -1.62 36 -4 36 C-3.34 34.35 -2.68 32.7 -2 31 C-1.34 31 -0.68 31 0 31 C0 20.77 0 10.54 0 0 Z " fill="#E1ACB3" transform="translate(271,249)"/>
<path d="M0 0 C1.18851562 0.00902344 2.37703125 0.01804688 3.6015625 0.02734375 C4.51679688 0.03894531 5.43203125 0.05054688 6.375 0.0625 C6.375 0.3925 6.375 0.7225 6.375 1.0625 C3.405 1.0625 0.435 1.0625 -2.625 1.0625 C-2.955 2.0525 -3.285 3.0425 -3.625 4.0625 C-4.615 4.0625 -5.605 4.0625 -6.625 4.0625 C-8.2015234 5.4950584 -8.2015234 5.4950584 -9.625 7.375 C-11.55247289 9.76928272 -13.43482183 11.87232183 -15.625 14.0625 C-14.635 11.0925 -13.645 8.1225 -12.625 5.0625 C-11.965 5.0625 -11.305 5.0625 -10.625 5.0625 C-10.191875 4.1034375 -10.191875 4.1034375 -9.75 3.125 C-7.53194366 -0.94143663 -4.23078123 -0.04147825 0 0 Z " fill="#311C1D" transform="translate(365.625,252.9375)"/>
<path d="M0 0 C1.65 0 3.3 0 5 0 C5 0.66 5 1.32 5 2 C4.34 2 3.68 2 3 2 C2.67 12.89 2.34 23.78 2 35 C1.67 35 1.34 35 1 35 C0.505 17.675 0.505 17.675 0 0 Z " fill="#D9ACAE" transform="translate(119,247)"/>
<path d="M0 0 C0.66 0.33 1.32 0.66 2 1 C1.071875 1.61875 1.071875 1.61875 0.125 2.25 C-2.06768281 4.05573879 -2.92788417 5.4090534 -4 8 C-4.66 8 -5.32 8 -6 8 C-6.33 11.96 -6.66 15.92 -7 20 C-7.33 20 -7.66 20 -8 20 C-8.2165625 18.39125 -8.2165625 18.39125 -8.4375 16.75 C-8.83055265 13.2447336 -8.83055265 13.2447336 -9.73828125 11.02734375 C-10 9 -10 9 -8.671875 6.89453125 C-8.03765625 6.20746094 -7.4034375 5.52039063 -6.75 4.8125 C-6.12609375 4.11769531 -5.5021875 3.42289063 -4.859375 2.70703125 C-3 1 -3 1 0 0 Z " fill="#C99CA3" transform="translate(161,248)"/>
<path d="M0 0 C-1.98 0.99 -1.98 0.99 -4 2 C2.7281627 2.22262303 8.53991163 1.95021536 15 0 C14.67 0.99 14.34 1.98 14 3 C8.5522447 4.20582726 3.59202606 5 -2 5 C-2.66 5.66 -3.32 6.32 -4 7 C-4.33 6.34 -4.66 5.68 -5 5 C-5.99 4.34 -6.98 3.68 -8 3 C-5.53387212 -0.1151089 -3.89156016 -0.31553191 0 0 Z " fill="#191010" transform="translate(296,286)"/>
<path d="M0 0 C0.33 0 0.66 0 1 0 C1.3125 2.25 1.3125 2.25 1 5 C-3.3598714 9.24203704 -6.74406172 10.1324228 -12.6875 10.0625 C-13.68136719 10.05347656 -14.67523438 10.04445313 -15.69921875 10.03515625 C-16.83810547 10.01775391 -16.83810547 10.01775391 -18 10 C-17.01 9.34 -16.02 8.68 -15 8 C-15.99 7.34 -16.98 6.68 -18 6 C-13.05 6 -8.1 6 -3 6 C-2.34 4.68 -1.68 3.36 -1 2 C-0.67 1.34 -0.34 0.68 0 0 Z " fill="#433739" transform="translate(112,277)"/>
<path d="M0 0 C0.7425 0.763125 1.485 1.52625 2.25 2.3125 C6.17832448 6.15154438 8.77405669 8.25082549 14.25 9.1875 C15.14203125 9.34605469 16.0340625 9.50460937 16.953125 9.66796875 C17.96632813 9.83232422 17.96632813 9.83232422 19 10 C19 10.33 19 10.66 19 11 C12.03458478 11.50453712 7.68643536 11.20796217 2 7 C-0.4375 4.25 -0.4375 4.25 -2 2 C-1.34 2 -0.68 2 0 2 C0 1.34 0 0.68 0 0 Z " fill="#BD969B" transform="translate(85,275)"/>
<path d="M0 0 C0.33 0.66 0.66 1.32 1 2 C2.98 2 4.96 2 7 2 C5 4 5 4 2.375 4.125 C1.59125 4.08375 0.8075 4.0425 0 4 C0 4.66 0 5.32 0 6 C5.94 6 11.88 6 18 6 C18 6.33 18 6.66 18 7 C10 7 2 7 -6 7 C-4.02 4.69 -2.04 2.38 0 0 Z " fill="#4D3232" transform="translate(317,278)"/>
<path d="M0 0 C1.07292222 3.20455578 0.96120832 4.76020763 -0.4375 7.8125 C-1.70758753 10.86297809 -1.99592 12.24072007 -1.9375 15.6875 C-2.01439365 19.76286358 -3.21796231 21.13102363 -6 24 C-5.7834375 22.63875 -5.7834375 22.63875 -5.5625 21.25 C-4.78452415 15.85973874 -4.41887914 10.42760412 -4 5 C-3.01 5 -2.02 5 -1 5 C-0.67 3.35 -0.34 1.7 0 0 Z " fill="#7B5658" transform="translate(301,212)"/>
<path d="M0 0 C1.98 0.495 1.98 0.495 4 1 C3.96744792 3.05078125 3.93489583 5.1015625 3.90234375 7.15234375 C3.79438816 9.01732141 3.79438816 9.01732141 5 10 C5.04080783 11.99958364 5.04254356 14.00045254 5 16 C4.01 16 3.02 16 2 16 C2.061875 15.236875 2.12375 14.47375 2.1875 13.6875 C2.25898085 10.95474688 2.25898085 10.95474688 0.5 9.1875 C0.005 8.795625 -0.49 8.40375 -1 8 C-0.34 7.34 0.32 6.68 1 6 C0.67801034 2.90073181 0.67801034 2.90073181 0 0 Z " fill="#8B767A" transform="translate(175,309)"/>
<path d="M0 0 C1.65 0.33 3.3 0.66 5 1 C4.25 6.75 4.25 6.75 2 9 C2.33 7.02 2.66 5.04 3 3 C0.64214682 3.89335797 0.64214682 3.89335797 -0.125 7.0625 C-0.558125 8.5165625 -0.558125 8.5165625 -1 10 C-1.66 10 -2.32 10 -3 10 C-3.33 8.02 -3.66 6.04 -4 4 C-3.01 4 -2.02 4 -1 4 C-0.67 2.68 -0.34 1.36 0 0 Z " fill="#B08B8C" transform="translate(309,192)"/>
<path d="M0 0 C0.99 0.66 1.98 1.32 3 2 C2.67257812 2.54140625 2.34515625 3.0828125 2.0078125 3.640625 C0.78335233 6.50719067 0.80107854 8.6452987 0.875 11.75 C0.89304687 12.73484375 0.91109375 13.7196875 0.9296875 14.734375 C0.95289063 15.48203125 0.97609375 16.2296875 1 17 C0.34 16.67 -0.32 16.34 -1 16 C-1.62852934 13.66752185 -2.15535246 11.30708533 -2.625 8.9375 C-2.88539063 7.64714844 -3.14578125 6.35679687 -3.4140625 5.02734375 C-3.60742188 4.02832031 -3.80078125 3.02929688 -4 2 C-2.68 1.34 -1.36 0.68 0 0 Z " fill="#351F22" transform="translate(268,308)"/>
<path d="M0 0 C1.32 0 2.64 0 4 0 C3.71758359 1.46015291 3.42373386 2.91809793 3.125 4.375 C2.96257812 5.18710938 2.80015625 5.99921875 2.6328125 6.8359375 C2 9 2 9 0 11 C-0.33 10.01 -0.66 9.02 -1 8 C-1.99 8.495 -1.99 8.495 -3 9 C-2.01 6.03 -1.02 3.06 0 0 Z " fill="#D69EA2" transform="translate(306,202)"/>
<path d="M0 0 C0.66 0 1.32 0 2 0 C2.50354867 2.43681587 3.00296756 4.87435439 3.5 7.3125 C3.64308594 8.00279297 3.78617188 8.69308594 3.93359375 9.40429688 C4.52625044 12.32524773 5 15.01108122 5 18 C4.01 18 3.02 18 2 18 C1.6603981 16.12612523 1.32861309 14.25083303 1 12.375 C0.7215625 10.80878906 0.7215625 10.80878906 0.4375 9.2109375 C0.01284203 6.09425135 -0.07545206 3.14069188 0 0 Z " fill="#AB8A90" transform="translate(226,309)"/>
<path d="M0 0 C0.33 0 0.66 0 1 0 C1 4.95 1 9.9 1 15 C6.61 15 12.22 15 18 15 C18 15.99 18 16.98 18 18 C17.48953125 17.83628906 16.9790625 17.67257812 16.453125 17.50390625 C11.11070665 16.40649866 5.4169129 16.9498434 0 17 C0 11.39 0 5.78 0 0 Z " fill="#8D7173" transform="translate(231,247)"/>
<path d="M0 0 C1.35384615 7.38461538 1.35384615 7.38461538 -0.4375 10.5 C-0.953125 10.995 -1.46875 11.49 -2 12 C-2.66 11.67 -3.32 11.34 -4 11 C-3.01 8.03 -2.02 5.06 -1 2 C-1.61488281 2.28875 -2.22976563 2.5775 -2.86328125 2.875 C-3.67152344 3.24625 -4.47976563 3.6175 -5.3125 4 C-6.51326172 4.556875 -6.51326172 4.556875 -7.73828125 5.125 C-10 6 -10 6 -13 6 C-13 5.34 -13 4.68 -13 4 C-11.35 4 -9.7 4 -8 4 C-7.67 3.01 -7.34 2.02 -7 1 C-2.25 0 -2.25 0 0 0 Z " fill="#312423" transform="translate(415,230)"/>
<path d="M0 0 C0.99 0 1.98 0 3 0 C4.65 4.95 6.3 9.9 8 15 C7.01 15 6.02 15 5 15 C4.16013916 13.06532058 3.32831973 11.12714871 2.5 9.1875 C2.0359375 8.10855469 1.571875 7.02960938 1.09375 5.91796875 C0 3 0 3 0 0 Z " fill="#9F8388" transform="translate(214,309)"/>
<path d="M0 0 C1.98 0 3.96 0 6 0 C6.38218767 1.65614657 6.71395102 3.32457024 7 5 C6 6 6 6 2.9375 6.0625 C1.4834375 6.0315625 1.4834375 6.0315625 0 6 C0 4.02 0 2.04 0 0 Z " fill="#120506" transform="translate(170,310)"/>
<path d="M0 0 C0 0.66 0 1.32 0 2 C1.65 2.33 3.3 2.66 5 3 C1.5233662 5.14336161 -1.21229195 5.21277626 -5.25 5.125 C-6.32765625 5.10695313 -7.4053125 5.08890625 -8.515625 5.0703125 C-9.33546875 5.04710937 -10.1553125 5.02390625 -11 5 C-9.04754573 1.09509146 -4.11653518 0 0 0 Z " fill="#957376" transform="translate(302,284)"/>
<path d="M0 0 C0.66 0 1.32 0 2 0 C3.37073015 4.52340949 2.77274523 7.64871625 1 12 C-1.625 13.9375 -1.625 13.9375 -4 15 C-3.71125 14.38125 -3.4225 13.7625 -3.125 13.125 C-1.58288195 8.84133876 -0.81601453 4.47071788 0 0 Z " fill="#261214" transform="translate(189,264)"/>
<path d="M0 0 C0 0.66 0 1.32 0 2 C1.32 2.33 2.64 2.66 4 3 C3.67 3.66 3.34 4.32 3 5 C1.02 4.01 -0.96 3.02 -3 2 C-3 2.66 -3 3.32 -3 4 C-3.639375 4.28875 -4.27875 4.5775 -4.9375 4.875 C-7.15206079 5.82823451 -7.15206079 5.82823451 -8 8 C-8.66 8 -9.32 8 -10 8 C-9.6875 6.0625 -9.6875 6.0625 -9 4 C-8.01 3.67 -7.02 3.34 -6 3 C-6 2.01 -6 1.02 -6 0 C-3.50907189 -1.24546405 -2.58919267 -0.7767578 0 0 Z " fill="#241518" transform="translate(315,306)"/>
<path d="M0 0 C1.36125 0.12375 1.36125 0.12375 2.75 0.25 C3.75834883 3.45838263 3.89367764 4.89080591 2.625 8.0625 C0.75 10.25 0.75 10.25 -1.9375 10.5625 C-2.700625 10.459375 -3.46375 10.35625 -4.25 10.25 C-1.25 8.25 -1.25 8.25 0.75 8.25 C1.08 6.27 1.41 4.29 1.75 2.25 C-1.22 2.91 -4.19 3.57 -7.25 4.25 C-4.83923194 1.28290085 -3.90322061 0.30024774 0 0 Z " fill="#462E31" transform="translate(382.25,260.75)"/>
<path d="M0 0 C0.66 0 1.32 0 2 0 C2 1.32 2 2.64 2 4 C2.66 3.34 3.32 2.68 4 2 C4.33 3.65 4.66 5.3 5 7 C3.68 7.33 2.36 7.66 1 8 C0.67 9.32 0.34 10.64 0 12 C-0.33 11.34 -0.66 10.68 -1 10 C-0.67 9.01 -0.34 8.02 0 7 C-0.66 7 -1.32 7 -2 7 C-1.125 1.125 -1.125 1.125 0 0 Z " fill="#7D5758" transform="translate(310,195)"/>
<path d="M0 0 C0.33 0 0.66 0 1 0 C1 5.61 1 11.22 1 17 C-1.31 17 -3.62 17 -6 17 C-5.67 16.34 -5.34 15.68 -5 15 C-4.01 15.33 -3.02 15.66 -2 16 C-2.33 14.02 -2.66 12.04 -3 10 C-2.34 10 -1.68 10 -1 10 C-0.67 6.7 -0.34 3.4 0 0 Z " fill="#2E1D1F" transform="translate(233,311)"/>
<path d="M0 0 C0.28875 0.61875 0.5775 1.2375 0.875 1.875 C1.93720042 4.13325765 1.93720042 4.13325765 4 6 C0.04 7.98 0.04 7.98 -4 10 C-3.5205537 5.78087253 -2.83374881 3.20336822 0 0 Z " fill="#D8A2A6" transform="translate(355,248)"/>
<path d="M0 0 C1.051875 -0.01417969 2.10375 -0.02835938 3.1875 -0.04296875 C6 0.1875 6 0.1875 9 2.1875 C5.13276369 3.45332219 1.26848738 3.2993765 -2.75 3.25 C-3.44738281 3.24548828 -4.14476562 3.24097656 -4.86328125 3.23632812 C-6.57555803 3.2246002 -8.28779033 3.20666653 -10 3.1875 C-8.04652565 -0.71944871 -3.88139687 0.02378307 0 0 Z " fill="#6D5C5E" transform="translate(169,245.8125)"/>
<path d="M0 0 C2 2 2 2 2.1953125 4.3828125 C2.17210937 5.28773438 2.14890625 6.19265625 2.125 7.125 C2.10695312 8.03507812 2.08890625 8.94515625 2.0703125 9.8828125 C2.04710937 10.58148438 2.02390625 11.28015625 2 12 C-1.09773244 12.84062397 -3.78332751 13.08935201 -7 13 C-4 11 -4 11 -1 11 C-0.835 9.741875 -0.67 8.48375 -0.5 7.1875 C-0.4071875 6.47980469 -0.314375 5.77210938 -0.21875 5.04296875 C0.053233 2.84528294 0.053233 2.84528294 0 0 Z " fill="#190809" transform="translate(181,316)"/>
<path d="M0 0 C1.32 0 2.64 0 4 0 C3.44271087 3.34373475 2.64826111 6.03312999 1 9 C0.67 8.34 0.34 7.68 0 7 C0.33 6.34 0.66 5.68 1 5 C-0.65 5.66 -2.3 6.32 -4 7 C-2.92598892 4.08482708 -2.22189824 2.22189824 0 0 Z " fill="#4D3A3C" transform="translate(144,276)"/>
<path d="M0 0 C1.32 0.33 2.64 0.66 4 1 C4 1.99 4 2.98 4 4 C5.32 4.33 6.64 4.66 8 5 C4.7 5.66 1.4 6.32 -2 7 C-1.34 4.69 -0.68 2.38 0 0 Z " fill="#D09EA5" transform="translate(373,265)"/>
<path d="M0 0 C0.66 0.33 1.32 0.66 2 1 C2.99 0.67 3.98 0.34 5 0 C5 0.66 5 1.32 5 2 C4.34 2 3.68 2 3 2 C2.34 4.31 1.68 6.62 1 9 C0.67 8.34 0.34 7.68 0 7 C-0.99 7.495 -0.99 7.495 -2 8 C-2.33 8.99 -2.66 9.98 -3 11 C-3.66 11 -4.32 11 -5 11 C-3.55049545 7.2089881 -1.84827434 3.6125362 0 0 Z " fill="#C9979E" transform="translate(350,256)"/>
<path d="M0 0 C2.31 0 4.62 0 7 0 C6.67 2.64 6.34 5.28 6 8 C5.34 8 4.68 8 4 8 C4.33 6.02 4.66 4.04 5 2 C4.071875 2.680625 3.14375 3.36125 2.1875 4.0625 C0.6096875 5.0215625 0.6096875 5.0215625 -1 6 C-1.99 5.67 -2.98 5.34 -4 5 C-2.68 4.67 -1.36 4.34 0 4 C0 2.68 0 1.36 0 0 Z " fill="#3E2528" transform="translate(379,236)"/>
<path d="M0 0 C-0.33 1.98 -0.66 3.96 -1 6 C7.415 5.505 7.415 5.505 16 5 C15.67 5.66 15.34 6.32 15 7 C9.39 7 3.78 7 -2 7 C-2.33 6.01 -2.66 5.02 -3 4 C-3.99 3.67 -4.98 3.34 -6 3 C-2.25 0 -2.25 0 0 0 Z " fill="#C09497" transform="translate(384,238)"/>
<path d="M0 0 C0.33 0 0.66 0 1 0 C1 3.3 1 6.6 1 10 C-2.96 10 -6.92 10 -11 10 C-11 9.34 -11 8.68 -11 8 C-7.7 8 -4.4 8 -1 8 C-0.67 5.36 -0.34 2.72 0 0 Z " fill="#4A4543" transform="translate(212,318)"/>
<path d="M0 0 C0.95238045 2.85714134 1.05397648 4.38033125 0.9375 7.3125 C0.87301873 11.27164976 1.63354014 14.26500971 3 18 C2.67 18.66 2.34 19.32 2 20 C1.34 20 0.68 20 0 20 C-1.57924842 16.84150315 -1.14316514 13.4634872 -1.125 10 C-1.12886719 9.26265625 -1.13273438 8.5253125 -1.13671875 7.765625 C-1.1266598 2.2533196 -1.1266598 2.2533196 0 0 Z " fill="#1A0C0C" transform="translate(199,308)"/>
<path d="M0 0 C0 0.99 0 1.98 0 3 C-4.46236469 4.80619523 -7.31034294 5.11658501 -12 4 C-12 3.01 -12 2.02 -12 1 C-10.9790625 1.309375 -10.9790625 1.309375 -9.9375 1.625 C-6.21166669 2.10063829 -3.53007446 1.17669149 0 0 Z " fill="#3C3433" transform="translate(284,324)"/>
<path d="M0 0 C-0.33 1.32 -0.66 2.64 -1 4 C-7.6 4 -14.2 4 -21 4 C-21 3.67 -21 3.34 -21 3 C-20.04738281 2.95101563 -19.09476562 2.90203125 -18.11328125 2.8515625 C-16.85902344 2.77679688 -15.60476562 2.70203125 -14.3125 2.625 C-12.45044922 2.52058594 -12.45044922 2.52058594 -10.55078125 2.4140625 C-6.86938182 1.9847684 -3.5929232 0 0 0 Z " fill="#AD9092" transform="translate(145,281)"/>
<path d="M0 0 C3.37898381 1.44813592 5.49631932 3.32940727 8 6 C8.66 6.66 9.32 7.32 10 8 C6.28111761 7.49287967 3.26545761 6.88391785 0 5 C0 3.35 0 1.7 0 0 Z " fill="#BD999D" transform="translate(194,277)"/>
<path d="M0 0 C0.8723412 2.99480917 1.10829766 5.63575911 1.0625 8.75 C1.05347656 9.54921875 1.04445313 10.3484375 1.03515625 11.171875 C1.01775391 12.07679688 1.01775391 12.07679688 1 13 C2.32 13.66 3.64 14.32 5 15 C-0.875 14.125 -0.875 14.125 -2 13 C-2.28362108 8.1784417 -1.75417412 4.49507119 0 0 Z " fill="#BC8E94" transform="translate(314,238)"/>
<path d="M0 0 C3.63 0 7.26 0 11 0 C11 1.32 11 2.64 11 4 C5.06 3.01 5.06 3.01 -1 2 C-0.67 1.34 -0.34 0.68 0 0 Z " fill="#786266" transform="translate(274,246)"/>
<path d="M0 0 C0.66 0 1.32 0 2 0 C2.391875 0.804375 2.78375 1.60875 3.1875 2.4375 C4.8525473 5.40122736 4.8525473 5.40122736 8.6875 5.8125 C10.3271875 5.9053125 10.3271875 5.9053125 12 6 C11.67 6.66 11.34 7.32 11 8 C7.75 8.3125 7.75 8.3125 4 8 C1.5625 5.6875 1.5625 5.6875 0 3 C0 2.01 0 1.02 0 0 Z " fill="#8A7878" transform="translate(305,314)"/>
<path d="M0 0 C0.33 0.66 0.66 1.32 1 2 C0.34 2 -0.32 2 -1 2 C-1.33 3.32 -1.66 4.64 -2 6 C-1.01 6.66 -0.02 7.32 1 8 C-1.64 8 -4.28 8 -7 8 C-5.98823563 4.59679258 -5.35156418 3.24274669 -2.375 1.1875 C-1.59125 0.795625 -0.8075 0.40375 0 0 Z " fill="#D8A4A7" transform="translate(308,279)"/>
<path d="M0 0 C1.65 0 3.3 0 5 0 C4.67 2.31 4.34 4.62 4 7 C3.34 7 2.68 7 2 7 C2.33 5.68 2.66 4.36 3 3 C0.69 3.66 -1.62 4.32 -4 5 C-4 4.01 -4 3.02 -4 2 C-2.68 2 -1.36 2 0 2 C0 1.34 0 0.68 0 0 Z " fill="#443030" transform="translate(251,278)"/>
<path d="M0 0 C0 0.33 0 0.66 0 1 C-0.66386719 1.09796875 -1.32773438 1.1959375 -2.01171875 1.296875 C-7.45058506 2.21790929 -10.86795107 3.12620413 -15 7 C-15.66 7 -16.32 7 -17 7 C-15.78879836 3.23181713 -13.44372602 1.53626334 -10.01953125 -0.31640625 C-6.48366051 -1.51326772 -3.60358208 -0.75864886 0 0 Z " fill="#67585B" transform="translate(101,247)"/>
<path d="M0 0 C1.98 0 3.96 0 6 0 C5.67 1.65 5.34 3.3 5 5 C3.35 5 1.7 5 0 5 C0 3.35 0 1.7 0 0 Z " fill="#0D0606" transform="translate(237,310)"/>
<path d="M0 0 C0.99 0.33 1.98 0.66 3 1 C2.34 1 1.68 1 1 1 C1.33 1.99 1.66 2.98 2 4 C1.34 4.66 0.68 5.32 0 6 C-0.71408334 7.98356483 -1.38617742 9.98315437 -2 12 C-2.99 12 -3.98 12 -5 12 C-3.68938409 7.76570244 -2.05643741 3.92592596 0 0 Z " fill="#251413" transform="translate(311,203)"/>
<path d="M0 0 C0.6875 1.75 0.6875 1.75 1 4 C-0.4375 6.25 -0.4375 6.25 -2 8 C-4.64 7.34 -7.28 6.68 -10 6 C-10 5.01 -10 4.02 -10 3 C-9.34 3 -8.68 3 -8 3 C-8 3.66 -8 4.32 -8 5 C-7.38125 4.835 -6.7625 4.67 -6.125 4.5 C-4 4 -4 4 -2 4 C-1.34 2.68 -0.68 1.36 0 0 Z " fill="#291F1E" transform="translate(302,322)"/>
<path d="M0 0 C3.48133831 1.39253532 4.47886033 2.63176216 6 6 C6.66 6.33 7.32 6.66 8 7 C8 7.66 8 8.32 8 9 C6.35 8.67 4.7 8.34 3 8 C2.67 6.35 2.34 4.7 2 3 C1.34 3 0.68 3 0 3 C0 2.01 0 1.02 0 0 Z " fill="#9A7E83" transform="translate(257,319)"/>
<path d="M0 0 C0.66 0.33 1.32 0.66 2 1 C2.4140625 3.06640625 2.4140625 3.06640625 2.625 5.5625 C2.69976562 6.38878906 2.77453125 7.21507812 2.8515625 8.06640625 C2.90054688 8.70449219 2.94953125 9.34257812 3 10 C2.67 10 2.34 10 2 10 C2 8.35 2 6.7 2 5 C1.01 5.33 0.02 5.66 -1 6 C-1.33 7.65 -1.66 9.3 -2 11 C-2.66 10.67 -3.32 10.34 -4 10 C-2.99806563 6.20696275 -2.18975773 3.28463659 0 0 Z " fill="#2B1C1D" transform="translate(225,314)"/>
<path d="M0 0 C0.66 0 1.32 0 2 0 C1.34 4.62 0.68 9.24 0 14 C-3 10 -3 10 -2.8125 6.4375 C-2 3 -2 3 0 0 Z " fill="#B99296" transform="translate(83,254)"/>
<path d="M0 0 C0.66 0.33 1.32 0.66 2 1 C0.68 1.33 -0.64 1.66 -2 2 C-2 3.65 -2 5.3 -2 7 C-1.01 7 -0.02 7 1 7 C1 7.66 1 8.32 1 9 C1.66 9.33 2.32 9.66 3 10 C1.02 10.99 1.02 10.99 -1 12 C-1.33 11.01 -1.66 10.02 -2 9 C-2.66 8.34 -3.32 7.68 -4 7 C-3.625 3.875 -3.625 3.875 -3 1 C-2.01 0.67 -1.02 0.34 0 0 Z " fill="#D19CA0" transform="translate(405,235)"/>
<path d="M0 0 C7.10526316 2.05263158 7.10526316 2.05263158 9 5 C9.1875 8.1875 9.1875 8.1875 9 11 C8.34 10.67 7.68 10.34 7 10 C6.731875 9.030625 6.46375 8.06125 6.1875 7.0625 C5.30639054 3.79353796 5.30639054 3.79353796 2.375 2.625 C1.59125 2.41875 0.8075 2.2125 0 2 C0 1.34 0 0.68 0 0 Z " fill="#927D82" transform="translate(312,308)"/>
<path d="M0 0 C3.63 0 7.26 0 11 0 C11.33 0.99 11.66 1.98 12 3 C8.04 2.67 4.08 2.34 0 2 C0 1.34 0 0.68 0 0 Z " fill="#453B3C" transform="translate(237,308)"/>
<path d="M0 0 C0.33 0 0.66 0 1 0 C1.33 3.3 1.66 6.6 2 10 C1.01 10 0.02 10 -1 10 C-1.103125 10.61875 -1.20625 11.2375 -1.3125 11.875 C-2 14 -2 14 -5 16 C-3.87548273 13.0280615 -2.77706209 10.66559313 -1 8 C-0.54860541 5.9507906 -0.54860541 5.9507906 -0.375 3.8125 C-0.189375 1.9253125 -0.189375 1.9253125 0 0 Z " fill="#BD9391" transform="translate(322,254)"/>
<path d="M0 0 C0.33 0.99 0.66 1.98 1 3 C0.2575 3.556875 -0.485 4.11375 -1.25 4.6875 C-3.91707995 6.93027178 -5.91556232 9.22074975 -8 12 C-8 10.68 -8 9.36 -8 8 C-7.34 8 -6.68 8 -6 8 C-6 6.68 -6 5.36 -6 4 C-4.68 4 -3.36 4 -2 4 C-1.34 2.68 -0.68 1.36 0 0 Z " fill="#1C0E11" transform="translate(89,245)"/>
<path d="M0 0 C0.66 0.66 1.32 1.32 2 2 C1.67 2.99 1.34 3.98 1 5 C0.34 4.01 -0.32 3.02 -1 2 C-3.6556728 1.41651248 -3.6556728 1.41651248 -6.625 1.3125 C-7.62789062 1.24675781 -8.63078125 1.18101562 -9.6640625 1.11328125 C-10.43492187 1.07589844 -11.20578125 1.03851563 -12 1 C-12 0.67 -12 0.34 -12 0 C-7.24562556 -1.67801451 -4.49696918 -2.56969668 0 0 Z " fill="#271717" transform="translate(217,245)"/>
<path d="M0 0 C3.875 0.875 3.875 0.875 5 2 C5.04063832 3.66617115 5.042721 5.33388095 5 7 C3.02 7.99 3.02 7.99 1 9 C1.020625 7.88625 1.04125 6.7725 1.0625 5.625 C1.26380718 2.16784079 1.26380718 2.16784079 0 0 Z " fill="#846D71" transform="translate(260,309)"/>
<path d="M0 0 C0.78246094 -0.01417969 1.56492188 -0.02835937 2.37109375 -0.04296875 C4.5625 0.1875 4.5625 0.1875 7.5625 2.1875 C4.56769083 3.0598412 1.92674089 3.29579766 -1.1875 3.25 C-1.98671875 3.24097656 -2.7859375 3.23195313 -3.609375 3.22265625 C-4.21265625 3.21105469 -4.8159375 3.19945312 -5.4375 3.1875 C-5.7675 2.5275 -6.0975 1.8675 -6.4375 1.1875 C-4.0978331 0.01766655 -2.60358473 0.0213759 0 0 Z " fill="#5B5152" transform="translate(169.4375,283.8125)"/>
<path d="M0 0 C0.33 1.32 0.66 2.64 1 4 C0.38125 4.28875 -0.2375 4.5775 -0.875 4.875 C-3.13325765 5.93720042 -3.13325765 5.93720042 -5 8 C-6.32 7.67 -7.64 7.34 -9 7 C-6.03 4.69 -3.06 2.38 0 0 Z " fill="#392121" transform="translate(410,242)"/>
<path d="M0 0 C-0.66 1.32 -1.32 2.64 -2 4 C-2.99 4 -3.98 4 -5 4 C-4.67 4.99 -4.34 5.98 -4 7 C-4.66 7 -5.32 7 -6 7 C-6 8.98 -6 10.96 -6 13 C-6.33 13 -6.66 13 -7 13 C-7.29363808 8.00815264 -7.07836372 5.02555256 -4 1 C-2 0 -2 0 0 0 Z " fill="#1E0F10" transform="translate(299,197)"/>
<path d="M0 0 C2.97 0.33 5.94 0.66 9 1 C9 1.66 9 2.32 9 3 C2.25 4.125 2.25 4.125 0 3 C0 2.01 0 1.02 0 0 Z " fill="#695C5C" transform="translate(307,325)"/>
<path d="M0 0 C0.33 0 0.66 0 1 0 C1 3.3 1 6.6 1 10 C0.01 9.67 -0.98 9.34 -2 9 C-2 6.69 -2 4.38 -2 2 C-1.34 2 -0.68 2 0 2 C0 1.34 0 0.68 0 0 Z " fill="#523537" transform="translate(288,313)"/>
<path d="M0 0 C3 3 6 6 9 9 C8.01 9.495 8.01 9.495 7 10 C7 9.34 7 8.68 7 8 C4.03 7.505 4.03 7.505 1 7 C1.33 6.01 1.66 5.02 2 4 C1.34 4 0.68 4 0 4 C0 2.68 0 1.36 0 0 Z " fill="#3A2223" transform="translate(82,276)"/>
<path d="M0 0 C0.66 1.32 1.32 2.64 2 4 C-1.625 8.875 -1.625 8.875 -5 10 C-3.66511872 6.40608886 -2.03977277 3.24509304 0 0 Z " fill="#3D2425" transform="translate(349,268)"/>
<path d="M0 0 C0.33 0 0.66 0 1 0 C1.63019694 9.01531729 1.63019694 9.01531729 -1 13.125 C-1.66 13.74375 -2.32 14.3625 -3 15 C-2.35812082 9.86496656 -1.31727753 5.0056546 0 0 Z " fill="#49292A" transform="translate(324,259)"/>
<path d="M0 0 C1.34567923 2.69135846 0.77224621 4.13876894 0.1875 7.0625 C0.01605469 7.96097656 -0.15539062 8.85945312 -0.33203125 9.78515625 C-0.55246094 10.51605469 -0.77289063 11.24695313 -1 12 C-1.99 12.495 -1.99 12.495 -3 13 C-3 10.03 -3 7.06 -3 4 C-2.34 4 -1.68 4 -1 4 C-0.67 2.68 -0.34 1.36 0 0 Z " fill="#5E4346" transform="translate(296,227)"/>
<path d="M0 0 C1.12588014 0.95729916 2.2506715 1.91587895 3.375 2.875 C4.00148437 3.40867187 4.62796875 3.94234375 5.2734375 4.4921875 C6.55836651 5.61432007 7.79371975 6.79371975 9 8 C4.2482602 7.56802365 2.07999946 6.67230705 -1 3 C-0.67 2.01 -0.34 1.02 0 0 Z " fill="#A3878C" transform="translate(156,277)"/>
<path d="M0 0 C-1.4098361 4.2295083 -4.16421847 5.08210924 -8 7 C-8.66 6.34 -9.32 5.68 -10 5 C-8.90241493 4.15801693 -7.79664683 3.32669329 -6.6875 2.5 C-6.07261719 2.0359375 -5.45773437 1.571875 -4.82421875 1.09375 C-3 0 -3 0 0 0 Z " fill="#C79698" transform="translate(343,271)"/>
<path d="M0 0 C2.97 0.33 5.94 0.66 9 1 C9 1.99 9 2.98 9 4 C4.545 3.01 4.545 3.01 0 2 C0 1.34 0 0.68 0 0 Z " fill="#EBB3BA" transform="translate(206,264)"/>
<path d="M0 0 C4.43090471 1.20842856 6.98112756 2.51668565 10 6 C9.67 6.66 9.34 7.32 9 8 C8.236875 7.360625 7.47375 6.72125 6.6875 6.0625 C4.11753287 3.85767219 4.11753287 3.85767219 1 3 C0.67 2.01 0.34 1.02 0 0 Z " fill="#665256" transform="translate(424,204)"/>
<path d="M0 0 C-0.33 1.32 -0.66 2.64 -1 4 C-3.64 4 -6.28 4 -9 4 C-3.7826087 0 -3.7826087 0 0 0 Z " fill="#CAA1A4" transform="translate(254,281)"/>
<path d="M0 0 C-3.20336822 2.83374881 -5.78087253 3.5205537 -10 4 C-9 1 -9 1 -6.6875 -0.25 C-3.90126985 -1.0275526 -2.66561622 -0.98726527 0 0 Z " fill="#261212" transform="translate(334,276)"/>
<path d="M0 0 C0.125 3.375 0.125 3.375 0 7 C-0.66 7.66 -1.32 8.32 -2 9 C-3 8 -3 8 -3.0625 4.4375 C-3.041875 3.303125 -3.02125 2.16875 -3 1 C-1 0 -1 0 0 0 Z " fill="#AE8C90" transform="translate(196,251)"/>
<path d="M0 0 C3 3 3 3 3.07421875 6.57421875 C2.96149977 7.94673808 2.83199844 9.31796172 2.6875 10.6875 C2.62626953 11.38939453 2.56503906 12.09128906 2.50195312 12.81445312 C2.34897376 14.5442967 2.17637398 16.27238497 2 18 C1.67 18 1.34 18 1 18 C0.67 12.06 0.34 6.12 0 0 Z " fill="#4B3234" transform="translate(324,241)"/>
<path d="M0 0 C0.66 0.33 1.32 0.66 2 1 C1.38125 1.4125 0.7625 1.825 0.125 2.25 C-2.06768281 4.05573879 -2.92788417 5.4090534 -4 8 C-4.33 7.34 -4.66 6.68 -5 6 C-5.66 5.67 -6.32 5.34 -7 5 C-4.63707344 2.47411298 -3.33537489 1.11179163 0 0 Z " fill="#AD8C90" transform="translate(161,248)"/>
<path d="M0 0 C0.33 0 0.66 0 1 0 C1 1.98 1 3.96 1 6 C-1.64 6.33 -4.28 6.66 -7 7 C-5.04105639 6.88693303 -5.04105639 6.88693303 -3 6 C-1.76709799 3.54295238 -1.76709799 3.54295238 -1 1 C-0.67 0.67 -0.34 0.34 0 0 Z " fill="#190D0D" transform="translate(261,311)"/>
<path d="M0 0 C0.33 0 0.66 0 1 0 C1.25 2.3125 1.25 2.3125 1 5 C-0.8125 6.875 -0.8125 6.875 -3 8 C-3.99 7.67 -4.98 7.34 -6 7 C-5.01 6.67 -4.02 6.34 -3 6 C-1.83333333 4.08333333 -1.83333333 4.08333333 -1 2 C-0.67 1.34 -0.34 0.68 0 0 Z " fill="#A79091" transform="translate(112,277)"/>
<path d="M0 0 C2.91517292 1.07401108 4.77810176 1.77810176 7 4 C7.125 6.625 7.125 6.625 7 9 C6.401875 8.21625 5.80375 7.4325 5.1875 6.625 C3.08914751 3.85425677 3.08914751 3.85425677 0 2 C0 1.34 0 0.68 0 0 Z " fill="#BC9FA1" transform="translate(177,248)"/>
<path d="M0 0 C0.33 0 0.66 0 1 0 C1.33 2.31 1.66 4.62 2 7 C4.64 7.66 7.28 8.32 10 9 C10 9.33 10 9.66 10 10 C8.35333797 9.8864371 6.70763918 9.75882619 5.0625 9.625 C4.14597656 9.55539063 3.22945313 9.48578125 2.28515625 9.4140625 C1.15400391 9.20910156 1.15400391 9.20910156 0 9 C-1.53445094 5.93109813 -0.54984289 3.29905734 0 0 Z " fill="#2F171A" transform="translate(311,244)"/>
<path d="M0 0 C1.98 0 3.96 0 6 0 C6 1.65 6 3.3 6 5 C3.5625 4.1875 3.5625 4.1875 1 3 C0.67 2.01 0.34 1.02 0 0 Z " fill="#A58B8D" transform="translate(249,247)"/>
<path d="M0 0 C2.64 0 5.28 0 8 0 C8.33 0.99 8.66 1.98 9 3 C6.03 2.67 3.06 2.34 0 2 C0 1.34 0 0.68 0 0 Z " fill="#3E3637" transform="translate(237,315)"/>
<path d="M0 0 C0.99 0.495 0.99 0.495 2 1 C1.01 1.495 1.01 1.495 0 2 C0 1.34 0 0.68 0 0 Z M-2 2 C-1.34 2 -0.68 2 0 2 C0.33 3.65 0.66 5.3 1 7 C-0.65 6.67 -2.3 6.34 -4 6 C-3.34 4.68 -2.68 3.36 -2 2 Z " fill="#F6B4B7" transform="translate(309,279)"/>
<path d="M0 0 C0.103125 0.556875 0.20625 1.11375 0.3125 1.6875 C1.13133577 4.44176578 2.45853781 6.58727657 4 9 C0.125 8.125 0.125 8.125 -1 7 C-1.125 4 -1.125 4 -1 1 C-0.67 0.67 -0.34 0.34 0 0 Z " fill="#2B1514" transform="translate(198,252)"/>
<path d="M0 0 C3.875 4.75 3.875 4.75 5 7 C3.35 7.33 1.7 7.66 0 8 C0 5.36 0 2.72 0 0 Z " fill="#2F1B1C" transform="translate(303,314)"/>
<path d="M0 0 C0.66 0 1.32 0 2 0 C3.4606285 2.64738916 4 3.89448334 4 7 C2.68 6.34 1.36 5.68 0 5 C0 3.35 0 1.7 0 0 Z " fill="#3B2327" transform="translate(213,312)"/>
<path d="M0 0 C-4.10457614 2.98514628 -6.97745369 3.2954439 -12 3 C-12 2.67 -12 2.34 -12 2 C-10.02 2 -8.04 2 -6 2 C-6 1.34 -6 0.68 -6 0 C-3 -1 -3 -1 0 0 Z " fill="#271A1B" transform="translate(217,282)"/>
<path d="M0 0 C0.66 0.99 1.32 1.98 2 3 C-0.25 5.0625 -0.25 5.0625 -3 7 C-5.3125 6.75 -5.3125 6.75 -7 6 C-6.030625 5.38125 -5.06125 4.7625 -4.0625 4.125 C-0.97164638 2.34321154 -0.97164638 2.34321154 0 0 Z " fill="#A88F91" transform="translate(181,278)"/>
<path d="M0 0 C2.475 0.495 2.475 0.495 5 1 C5.66 2.98 6.32 4.96 7 7 C3.17053157 5.54744301 1.87949705 3.57104439 0 0 Z " fill="#341C1E" transform="translate(87,276)"/>
<path d="M0 0 C0.33 0.99 0.66 1.98 1 3 C0.01 3.99 -0.98 4.98 -2 6 C-2.99 5.34 -3.98 4.68 -5 4 C-3 1 -3 1 0 0 Z " fill="#F0ACB7" transform="translate(346,270)"/>
<path d="M0 0 C0 0.33 0 0.66 0 1 C-5.94 1.495 -5.94 1.495 -12 2 C-12 1.34 -12 0.68 -12 0 C-7.74433453 -1.16063604 -4.3164922 -0.76173392 0 0 Z " fill="#141213" transform="translate(417,254)"/>
<path d="M0 0 C0.33 0 0.66 0 1 0 C1 1.98 1 3.96 1 6 C0.34 6 -0.32 6 -1 6 C-1 5.34 -1 4.68 -1 4 C-2.98 4.99 -2.98 4.99 -5 6 C-5 4.68 -5 3.36 -5 2 C-2.525 2.495 -2.525 2.495 0 3 C0 2.01 0 1.02 0 0 Z " fill="#3A2B2F" transform="translate(285,247)"/>
<path d="M0 0 C1.32 0.33 2.64 0.66 4 1 C-2.625 5 -2.625 5 -6 5 C-6 4.34 -6 3.68 -6 3 C-4.35 3 -2.7 3 -1 3 C-0.67 2.01 -0.34 1.02 0 0 Z " fill="#261213" transform="translate(408,231)"/>
<path d="M0 0 C2 3 2 3 1.8125 4.9375 C0.87858188 7.30821524 -0.38827939 9.03790534 -2 11 C-1 3.57142857 -1 3.57142857 0 0 Z " fill="#A47E85" transform="translate(297,225)"/>
<path d="M0 0 C0 0.66 0 1.32 0 2 C-0.9590625 2.433125 -0.9590625 2.433125 -1.9375 2.875 C-4.15206079 3.82823451 -4.15206079 3.82823451 -5 6 C-5.66 6 -6.32 6 -7 6 C-6.6875 4.125 -6.6875 4.125 -6 2 C-3 0 -3 0 0 0 Z " fill="#413839" transform="translate(312,308)"/>
<path d="M0 0 C0.66 0.33 1.32 0.66 2 1 C1 3 0 5 -1 7 C-1.99 6.67 -2.98 6.34 -4 6 C-4 5.34 -4 4.68 -4 4 C-3.01 4 -2.02 4 -1 4 C-0.67 2.68 -0.34 1.36 0 0 Z " fill="#231012" transform="translate(289,308)"/>
<path d="M0 0 C-2 2 -2 2 -3.9453125 2.1953125 C-5.96354167 2.13020833 -7.98177083 2.06510417 -10 2 C-6.86358686 -1.13641314 -4.14410883 -1.38136961 0 0 Z " fill="#150504" transform="translate(142,281)"/>
<path d="M0 0 C1.94268841 2.91403262 3.46395304 5.85808576 5 9 C3.35 8.67 1.7 8.34 0 8 C0 5.36 0 2.72 0 0 Z " fill="#362023" transform="translate(150,271)"/>
<path d="M0 0 C-0.53625 0.2475 -1.0725 0.495 -1.625 0.75 C-4.56424252 2.29696975 -7.25754408 4.13014369 -10 6 C-9.75 4.125 -9.75 4.125 -9 2 C-6.04454879 -0.11103658 -3.56144099 -0.19785783 0 0 Z " fill="#261312" transform="translate(363,244)"/>
<path d="M0 0 C0 0.66 0 1.32 0 2 C1.32 2.33 2.64 2.66 4 3 C0.04 3 -3.92 3 -8 3 C-2 0 -2 0 0 0 Z " fill="#231213" transform="translate(105,243)"/>
<path d="M0 0 C2.625 0.375 2.625 0.375 5 1 C5 1.99 5 2.98 5 4 C2.69 3.34 0.38 2.68 -2 2 C-1.34 1.34 -0.68 0.68 0 0 Z " fill="#2F292B" transform="translate(294,307)"/>
<path d="M0 0 C1.36125 0.12375 1.36125 0.12375 2.75 0.25 C-0.20183101 3.20183101 -3.20511947 3.33663988 -7.25 4.25 C-4.83923194 1.28290085 -3.90322061 0.30024774 0 0 Z " fill="#291616" transform="translate(382.25,260.75)"/>
<path d="M0 0 C0.99 0 1.98 0 3 0 C3 3 3 3 1.5625 4.6875 C0 6 0 6 -1 6 C-1.042721 4.33388095 -1.04063832 2.66617115 -1 1 C-0.67 0.67 -0.34 0.34 0 0 Z " fill="#171313" transform="translate(290,243)"/>
<path d="M0 0 C0 1.65 0 3.3 0 5 C-0.99 5.495 -0.99 5.495 -2 6 C-2 4.68 -2 3.36 -2 2 C-3.32 2.33 -4.64 2.66 -6 3 C-3.375 0 -3.375 0 0 0 Z " fill="#B0888C" transform="translate(414,232)"/>
<path d="M0 0 C0.66 0 1.32 0 2 0 C2.33 1.65 2.66 3.3 3 5 C1.68 5.33 0.36 5.66 -1 6 C-0.67 4.02 -0.34 2.04 0 0 Z " fill="#150A09" transform="translate(301,225)"/>
</svg>
